<svg xmlns="http://www.w3.org/2000/svg" xmlns:xlink="http://www.w3.org/1999/xlink" width="500" zoomAndPan="magnify" viewBox="0 0 375 374.999991" height="500" preserveAspectRatio="xMidYMid meet" version="1.0"><defs><g/><clipPath id="a67db0bf7d"><path d="M 81.429688 40.71875 L 293.679688 40.71875 L 293.679688 190 L 81.429688 190 Z M 81.429688 40.71875 " clip-rule="nonzero"/></clipPath><clipPath id="201b128fa3"><path d="M 82 230 L 293 230 L 293 241.71875 L 82 241.71875 Z M 82 230 " clip-rule="nonzero"/></clipPath><clipPath id="217458ba2c"><path d="M 37.5 299.75 L 337.566406 299.75 L 337.566406 333.21875 L 37.5 333.21875 Z M 37.5 299.75 " clip-rule="nonzero"/></clipPath><clipPath id="6beb9255a6"><path d="M 54.234375 299.75 L 320.765625 299.75 C 325.203125 299.75 329.460938 301.511719 332.597656 304.648438 C 335.738281 307.789062 337.5 312.046875 337.5 316.484375 C 337.5 320.921875 335.738281 325.179688 332.597656 328.316406 C 329.460938 331.457031 325.203125 333.21875 320.765625 333.21875 L 54.234375 333.21875 C 49.796875 333.21875 45.539062 331.457031 42.402344 328.316406 C 39.261719 325.179688 37.5 320.921875 37.5 316.484375 C 37.5 312.046875 39.261719 307.789062 42.402344 304.648438 C 45.539062 301.511719 49.796875 299.75 54.234375 299.75 Z M 54.234375 299.75 " clip-rule="nonzero"/></clipPath><clipPath id="9f894043d5"><path d="M 48.269531 309.621094 L 61.996094 309.621094 L 61.996094 323.347656 L 48.269531 323.347656 Z M 48.269531 309.621094 " clip-rule="nonzero"/></clipPath><clipPath id="41a562cd47"><path d="M 55.132812 309.621094 L 57.316406 314.300781 L 61.996094 316.484375 L 57.316406 318.667969 L 55.132812 323.347656 L 52.949219 318.667969 L 48.269531 316.484375 L 52.949219 314.300781 Z M 55.132812 309.621094 " clip-rule="nonzero"/></clipPath><clipPath id="5ec3837aac"><path d="M 313.003906 309.621094 L 326.730469 309.621094 L 326.730469 323.347656 L 313.003906 323.347656 Z M 313.003906 309.621094 " clip-rule="nonzero"/></clipPath><clipPath id="d9d2971f3b"><path d="M 319.867188 309.621094 L 322.050781 314.300781 L 326.730469 316.484375 L 322.050781 318.667969 L 319.867188 323.347656 L 317.683594 318.667969 L 313.003906 316.484375 L 317.683594 314.300781 Z M 319.867188 309.621094 " clip-rule="nonzero"/></clipPath></defs><rect x="-37.5" width="450" fill="#ffffff" y="-37.499999" height="449.999989" fill-opacity="1"/><rect x="-37.5" width="450" fill="#fff3ea" y="-37.499999" height="449.999989" fill-opacity="1"/><g clip-path="url(#a67db0bf7d)"><path fill="#ed0000" d="M 187.496094 40.769531 C 128.910156 40.769531 81.429688 88.261719 81.429688 146.835938 C 81.429688 161.566406 84.433594 175.589844 89.859375 188.335938 C 90.953125 186.597656 92.203125 184.96875 93.59375 183.46875 L 92.148438 181.347656 L 95.347656 179.121094 C 99.746094 176.058594 104.554688 173.953125 109.382812 172.792969 L 109.125 169.621094 L 109.105469 169.335938 L 109.125 169.035156 C 109.296875 166.6875 110.640625 163.867188 113.160156 160.554688 C 114.789062 158.414062 116.984375 155.949219 119.734375 153.179688 L 119.109375 152.539062 L 119.21875 150.808594 C 119.386719 148.070312 120.589844 145.484375 122.832031 143.074219 C 124.746094 141.023438 127.429688 139.074219 130.898438 137.238281 L 131.972656 136.667969 L 133.1875 136.804688 L 134.804688 136.988281 L 135.101562 136.308594 C 135.789062 134.699219 137.152344 133.496094 139.164062 132.695312 C 140.433594 132.1875 142.035156 131.832031 143.972656 131.609375 L 144.957031 131.371094 L 148.71875 127.71875 L 149.398438 127.058594 L 150.308594 126.773438 L 151.191406 126.496094 L 154.703125 123.316406 C 155.570312 122.351562 156.636719 121.707031 157.894531 121.382812 C 158.988281 121.109375 160.175781 121.117188 161.453125 121.402344 L 164.921875 122.109375 C 166.574219 121.964844 167.835938 121.851562 168.707031 121.78125 L 168.726562 121.78125 C 168.9375 121.761719 169.132812 121.742188 169.316406 121.734375 L 173.960938 119.019531 C 174.363281 117.605469 174.722656 116.417969 175.035156 115.472656 C 174.695312 115.617188 174.335938 115.785156 173.949219 115.960938 L 173.929688 115.960938 C 172.949219 116.410156 171.953125 116.640625 170.980469 116.640625 C 169.804688 116.640625 168.71875 116.328125 167.742188 115.703125 L 166.804688 115.105469 L 166.316406 114.101562 L 162.132812 105.46875 L 161.589844 104.355469 L 161.777344 103.160156 C 162.417969 98.964844 162.953125 95.730469 163.355469 93.429688 C 163.816406 90.867188 164.203125 89.230469 164.515625 88.53125 L 164.617188 88.308594 L 164.746094 88.097656 C 166.742188 84.890625 168.992188 82.304688 171.503906 80.363281 C 174.144531 78.324219 177.039062 76.988281 180.175781 76.355469 C 190.199219 74.351562 198.261719 80.578125 205.230469 85.957031 C 205.515625 86.175781 205.800781 86.398438 206.730469 87.105469 L 209.175781 88.972656 L 207.964844 91.765625 C 215.742188 91.65625 224.753906 91.535156 235.007812 91.40625 C 238.480469 91.453125 241.203125 90.976562 243.179688 89.957031 C 247.070312 86.910156 251.117188 86.527344 255.335938 88.796875 C 257.691406 89.78125 259.375 89.414062 260.394531 87.691406 C 261.765625 85.605469 264.027344 85.035156 267.179688 86.011719 C 269.082031 87.949219 271.023438 88.035156 273 86.257812 C 273.230469 85.800781 273.488281 85.414062 273.78125 85.101562 C 254.535156 58.242188 223.070312 40.742188 187.511719 40.742188 Z M 284.714844 189.308594 C 290.40625 176.308594 293.5625 161.945312 293.5625 146.835938 C 293.5625 133.46875 291.085938 120.6875 286.574219 108.90625 C 280.117188 109.550781 276.125 109.667969 274.601562 109.246094 C 272.027344 108.34375 269.828125 108.042969 268.007812 108.34375 C 265.480469 109.53125 263.335938 109.570312 261.589844 108.472656 C 230.703125 107.738281 219.960938 107.058594 229.371094 106.433594 C 251.777344 106.195312 263.59375 105.945312 264.835938 105.6875 C 266.8125 105.476562 268.3125 105.101562 269.324219 104.566406 C 270.941406 103.40625 274.683594 103.335938 280.550781 104.335938 C 282.1875 104.695312 283.667969 104.914062 284.992188 105 C 283.613281 101.78125 282.066406 98.644531 280.382812 95.601562 C 248.828125 95.664062 224.175781 95.507812 206.445312 95.121094 C 205.984375 95.785156 205.351562 96.402344 204.367188 97.007812 C 205.269531 97.386719 206.03125 97.84375 206.648438 98.386719 L 206.832031 98.554688 L 207.539062 99.261719 C 209.167969 100.871094 209.839844 101.542969 211.363281 103.261719 C 214.179688 106.433594 215.769531 108.457031 216.972656 110.71875 C 218.207031 113.027344 218.878906 115.234375 219.890625 118.828125 C 219.945312 119.03125 220.128906 119.488281 220.320312 119.976562 C 220.605469 120.695312 220.902344 121.441406 221.113281 122.183594 C 221.691406 124.226562 221.957031 126.148438 222.226562 127.988281 C 222.425781 129.429688 222.621094 130.800781 222.96875 131.96875 C 223.578125 132.4375 224.128906 132.941406 224.617188 133.511719 C 225.507812 134.542969 226.160156 135.71875 226.566406 137.109375 L 226.566406 137.125 C 227.410156 140.070312 226.894531 138.230469 227.105469 138.992188 C 227.871094 141.6875 228.503906 143.902344 229.5625 146.828125 L 229.582031 146.875 C 229.664062 147.121094 229.746094 147.359375 229.828125 147.609375 C 230.003906 147.34375 230.179688 147.09375 230.363281 146.863281 L 230.492188 146.699219 L 230.65625 146.535156 C 231.917969 145.28125 233.515625 144.472656 235.390625 143.996094 C 236.863281 143.617188 238.574219 143.453125 240.441406 143.425781 C 244.144531 143.324219 247.53125 143.269531 250.582031 143.261719 C 253.671875 143.261719 256.347656 143.304688 258.589844 143.398438 C 262.785156 143.582031 262.996094 144.171875 264.367188 147.921875 L 264.457031 148.179688 L 265.882812 152.058594 L 261.929688 153.292969 C 259.4375 154.074219 257.183594 154.964844 255.328125 155.902344 C 253.707031 156.722656 252.441406 157.523438 251.648438 158.257812 C 247.777344 162.652344 244.605469 166.117188 242.121094 168.65625 L 242.113281 168.648438 C 241.855469 168.90625 241.609375 169.164062 241.367188 169.402344 C 241.894531 169.320312 242.398438 169.28125 242.90625 169.273438 C 244.367188 169.253906 245.617188 169.519531 246.933594 169.980469 L 254.179688 172.527344 C 263.171875 172.519531 271.539062 175.882812 277.949219 181.464844 C 280.550781 183.726562 282.832031 186.359375 284.695312 189.28125 Z M 284.714844 189.308594 " fill-opacity="1" fill-rule="evenodd"/></g><g clip-path="url(#201b128fa3)"><path fill="#000000" d="M 187.496094 230.898438 C 245.230469 230.898438 292.035156 233.242188 292.035156 236.121094 C 292.035156 239.007812 245.230469 241.34375 187.496094 241.34375 C 129.757812 241.34375 82.953125 239 82.953125 236.121094 C 82.953125 233.234375 129.757812 230.898438 187.496094 230.898438 Z M 187.496094 230.898438 " fill-opacity="1" fill-rule="evenodd"/></g><path fill="#000000" d="M 225.855469 148.179688 C 227.246094 152.140625 227.648438 154.992188 227.0625 156.722656 C 227.0625 156.722656 227.714844 156.546875 229.019531 156.199219 C 230.316406 155.847656 232.238281 150.828125 233.441406 149.347656 C 234.878906 147.914062 237.398438 147.433594 240.550781 147.378906 C 247.980469 147.167969 253.9375 147.167969 258.425781 147.359375 C 260.0625 147.433594 260.082031 147.710938 260.753906 149.550781 C 255.355469 151.230469 250.894531 153.503906 248.734375 155.609375 C 241.085938 164.296875 236.136719 169.355469 233.894531 170.789062 C 233.894531 170.789062 231.382812 172.085938 223.273438 176.289062 C 223.273438 176.289062 224.203125 177.476562 228.136719 179.9375 C 231.402344 178.136719 235.925781 175.351562 239.703125 173.953125 C 242.28125 173.007812 243.824219 173.105469 245.636719 173.742188 C 241.285156 176.371094 237.753906 179.507812 235.015625 183.128906 C 239.804688 179.324219 245.808594 176.914062 252.46875 176.554688 C 269.765625 175.617188 284.910156 188.8125 286.296875 206.027344 C 287.683594 223.238281 274.792969 237.960938 257.507812 238.898438 C 243.925781 239.632812 231.667969 231.652344 226.363281 219.855469 L 225.683594 220.351562 C 225.683594 220.351562 222.566406 222.972656 216.347656 228.214844 C 214.234375 229.988281 212.984375 229.574219 210.582031 229.097656 C 208.902344 228.765625 206.132812 228.214844 202.289062 227.441406 C 202.289062 227.441406 195.539062 227.929688 182.050781 228.914062 C 178.757812 229.695312 177.433594 230.152344 174.390625 229.601562 C 170.132812 228.832031 164.175781 226.640625 159.570312 225.492188 C 159.570312 225.492188 156.570312 226.625 150.585938 228.894531 C 150.003906 229.085938 149.453125 228.800781 148.929688 228.058594 L 145.65625 216.785156 C 141.730469 227.632812 131.734375 235.617188 119.617188 236.277344 C 103.378906 237.160156 89.492188 224.546875 88.601562 208.113281 C 88.078125 198.511719 92.105469 189.730469 98.78125 183.910156 C 98.394531 183.441406 97.859375 182.78125 97.585938 182.375 C 106.328125 176.289062 116.828125 174.359375 125.179688 176.628906 C 125.179688 176.628906 125.398438 176.269531 125.851562 175.542969 C 125.851562 175.542969 123.046875 175.351562 117.4375 174.957031 C 117.4375 174.957031 117.03125 174.558594 116.222656 173.761719 C 116.222656 173.761719 115.265625 173.605469 113.363281 173.28125 C 113.363281 173.28125 113.253906 171.957031 113.042969 169.320312 C 113.269531 166.183594 117.355469 160.824219 125.269531 153.246094 C 123.84375 151.773438 123.128906 151.046875 123.128906 151.046875 C 123.347656 147.453125 126.550781 144.023438 132.726562 140.742188 C 134.226562 140.90625 134.972656 140.988281 134.972656 140.988281 C 135.917969 143.25 136.398438 144.382812 136.398438 144.382812 C 138.363281 141.878906 139.347656 140.628906 139.347656 140.628906 C 138.917969 138.789062 138.703125 137.878906 138.703125 137.878906 C 139.238281 136.648438 141.214844 135.859375 144.644531 135.515625 C 146.152344 135.148438 146.90625 134.957031 146.90625 134.957031 C 149.921875 132.023438 151.441406 130.5625 151.441406 130.5625 C 152.582031 130.210938 153.152344 130.035156 153.152344 130.035156 C 156.066406 127.398438 157.519531 126.082031 157.519531 126.082031 C 158.21875 125.226562 159.257812 124.960938 160.636719 125.292969 C 163.347656 125.84375 164.707031 126.121094 164.707031 126.121094 C 168.535156 125.78125 170.464844 125.613281 170.5 125.625 C 175.027344 122.984375 177.289062 121.660156 177.289062 121.660156 C 178.585938 117.015625 179.410156 114.535156 179.796875 114.210938 C 180.835938 113.660156 181.359375 113.382812 181.359375 113.382812 C 179.6875 111.453125 178.851562 110.488281 178.851562 110.488281 C 178.234375 110.019531 176.039062 110.652344 172.265625 112.390625 C 171.320312 112.824219 170.519531 112.824219 169.847656 112.402344 C 167.0625 106.644531 165.664062 103.765625 165.664062 103.765625 C 166.941406 95.445312 167.753906 90.921875 168.082031 90.195312 C 171.550781 84.59375 175.835938 81.285156 180.929688 80.261719 C 189.867188 78.46875 197.671875 85.203125 204.320312 90.269531 C 203.464844 92.246094 203.660156 93.257812 200.414062 94.589844 C 200.183594 96.933594 199.75 98.175781 198.953125 99.71875 C 201.507812 100.070312 203.210938 100.613281 204.054688 101.367188 C 206.1875 103.492188 206.832031 104.097656 208.421875 105.890625 C 213.636719 111.765625 214.207031 113.210938 216.089844 119.914062 C 216.332031 120.757812 217.019531 122.25 217.3125 123.269531 C 218.472656 127.359375 218.296875 131.316406 219.6875 134.515625 C 221.242188 135.460938 222.316406 136.59375 222.785156 138.222656 C 223.84375 141.871094 224.476562 144.335938 225.867188 148.179688 Z M 137.167969 208.167969 L 135.164062 208.554688 C 134.457031 213.34375 131.707031 217.511719 127.789062 220.066406 C 125.160156 222.871094 121.492188 224.710938 117.355469 224.929688 C 108.792969 225.398438 101.472656 218.789062 101.003906 210.171875 C 100.847656 207.222656 101.511719 204.417969 102.796875 201.980469 C 103.644531 198.632812 105.5 195.664062 108.046875 193.464844 L 107.515625 191.195312 C 102.382812 194.835938 99.164062 200.976562 99.535156 207.753906 C 100.101562 218.226562 108.996094 226.253906 119.394531 225.683594 C 128.96875 225.160156 136.480469 217.539062 137.167969 208.167969 Z M 270.121094 206.46875 C 269.929688 209.519531 268.164062 212.214844 264.835938 214.558594 C 263.003906 217.574219 260.082031 219.222656 256.0625 219.496094 C 255.402344 220.757812 254.269531 221.464844 252.640625 221.601562 C 252.640625 221.601562 252.21875 221.085938 251.382812 220.058594 C 251.382812 220.058594 249.78125 219.441406 246.574219 218.210938 C 246.574219 218.210938 246.792969 217.355469 247.234375 215.636719 C 247.234375 215.636719 246.839844 215.136719 246.039062 214.15625 L 241.441406 213.234375 C 243.382812 220.085938 253.636719 227.183594 262.390625 223.726562 C 269.292969 221.003906 271.8125 213.464844 270.121094 206.457031 Z M 167.789062 137.339844 C 170.097656 137.953125 170.886719 138.164062 170.886719 138.164062 C 170.078125 138.992188 169.445312 139.8125 168.265625 140.410156 C 168.265625 140.410156 166.207031 142.046875 162.097656 145.328125 C 160.011719 145.890625 157.785156 147.046875 155.414062 148.785156 C 154.648438 149.179688 153.710938 148.59375 152.78125 148.242188 C 152.78125 148.242188 151.441406 147.40625 148.746094 145.742188 C 148.976562 145.265625 148.808594 144.511719 148.25 143.480469 C 149.960938 143.058594 150.816406 142.847656 150.816406 142.847656 C 151.585938 141.898438 151.972656 141.421875 151.972656 141.421875 C 152.46875 141.964844 153.160156 142.210938 154.0625 142.175781 C 156.15625 140.527344 157.207031 139.710938 157.207031 139.710938 C 158.132812 139.628906 159.210938 139.304688 160.433594 138.726562 C 162.695312 137.117188 163.835938 136.308594 163.835938 136.308594 C 166.261719 136.179688 167.476562 136.105469 167.476562 136.105469 C 167.6875 136.925781 167.789062 137.328125 167.789062 137.328125 Z M 189.929688 148.335938 C 187.585938 146.09375 184.09375 145.238281 182.261719 144.425781 C 182.464844 143.472656 183.578125 143.847656 184.875 142.523438 C 184.992188 142.394531 185.074219 141.308594 185.203125 141.183594 C 186.566406 139.074219 187.484375 144.683594 189.921875 148.328125 Z M 189.929688 148.335938 " fill-opacity="1" fill-rule="evenodd"/><path fill="#fff3ea" d="M 125.214844 183.929688 C 119.746094 194.882812 117.003906 200.351562 117.003906 200.351562 C 115.488281 199.738281 114.484375 198.726562 113.988281 197.300781 C 113.988281 197.300781 112.839844 192.105469 110.539062 181.722656 C 110.191406 180.988281 109.640625 180.636719 108.902344 180.664062 C 106.605469 180.710938 103.652344 181.355469 100.058594 182.605469 C 107.578125 178.230469 115.523438 176.480469 124.128906 178.175781 C 118.816406 178.816406 116.101562 179.128906 115.972656 179.113281 C 116.128906 180.222656 118.4375 181.335938 122.90625 182.449219 C 124.414062 182.957031 125.1875 183.453125 125.214844 183.929688 Z M 114.933594 187.332031 C 116.664062 187.664062 118.375 188.214844 117.941406 190.265625 C 117.941406 190.265625 117.390625 191.882812 116.285156 195.121094 C 115.617188 195.679688 115.054688 195.339844 114.621094 194.101562 C 114.667969 194.550781 114.429688 193.097656 113.738281 188.710938 C 113.539062 187.441406 113.601562 187.066406 114.933594 187.324219 Z M 114.933594 187.332031 " fill-opacity="1" fill-rule="evenodd"/><path fill="#fff3ea" d="M 127.945312 188.832031 L 135.230469 172.472656 C 134.390625 172.078125 133.480469 171.839844 132.507812 171.753906 L 124.984375 188.988281 C 126.640625 189.347656 127.816406 189.824219 128.535156 190.402344 C 128.148438 189.355469 127.957031 188.820312 127.957031 188.820312 Z M 137.832031 166.632812 L 145.132812 150.238281 C 145.132812 150.238281 144.691406 149.925781 143.808594 149.292969 C 145.066406 149.21875 146.4375 149.980469 147.171875 150.808594 C 147.53125 149.578125 146.621094 148.96875 145.621094 148.355469 C 145.621094 148.355469 145.75 148.132812 146.015625 147.683594 C 146.015625 147.683594 146.464844 147.683594 147.375 147.671875 C 146.273438 146.488281 144.9375 146.230469 143.367188 146.902344 L 135.019531 166.027344 C 136.175781 166.089844 137.113281 166.292969 137.832031 166.632812 Z M 137.832031 166.632812 " fill-opacity="1" fill-rule="evenodd"/><path fill="#fff3ea" d="M 137.878906 169.660156 C 138.320312 168.730469 138.292969 168.398438 138.292969 168.398438 C 137.4375 167.101562 134.390625 166.617188 132.984375 167.371094 C 132.121094 169.0625 131.808594 169.988281 131.808594 169.988281 C 133.941406 169.960938 135.46875 170.386719 136.398438 171.257812 C 136.589844 170.707031 136.691406 170.441406 136.691406 170.441406 C 136.699219 169.722656 135.320312 169.007812 133.417969 168.886719 C 134.292969 168.539062 136.066406 168.546875 137.867188 169.667969 Z M 137.878906 169.660156 " fill-opacity="1" fill-rule="evenodd"/><path fill="#fff3ea" d="M 129.390625 194.882812 C 131.359375 194.605469 132.339844 194.476562 132.339844 194.476562 C 132.339844 194.476562 132.066406 195.027344 131.503906 196.132812 C 131.503906 196.132812 132.085938 196.105469 133.234375 196.039062 C 135.15625 198.789062 136.277344 201.621094 136.609375 204.527344 C 136.609375 204.527344 136.996094 204.875 137.777344 205.574219 C 137.777344 205.574219 135.617188 206.042969 131.285156 206.980469 C 131.019531 206.652344 130.632812 206.414062 130.125 206.238281 C 130.125 206.238281 128.066406 205.914062 123.9375 205.273438 C 123.9375 205.273438 122.917969 206.238281 120.875 208.160156 C 120.875 208.160156 120.828125 207.625 120.726562 206.558594 C 118.679688 206.257812 117.960938 204.832031 118.578125 202.273438 C 118.578125 202.273438 118.492188 201.953125 118.335938 201.300781 C 118.335938 201.300781 119.210938 199.582031 120.96875 196.140625 C 120.96875 196.140625 121.253906 196.039062 121.824219 195.847656 C 121.824219 195.847656 122.675781 194.089844 124.386719 190.570312 C 125.695312 190.339844 126.457031 190.585938 126.660156 191.3125 C 125.152344 194.78125 124.40625 196.519531 124.40625 196.519531 C 123.496094 196.527344 123.046875 196.527344 123.046875 196.527344 C 124.046875 196.941406 124.628906 197.410156 124.792969 197.914062 C 123.910156 200.234375 123.46875 201.390625 123.46875 201.390625 C 122.476562 200.648438 121.269531 200.628906 119.84375 201.335938 C 121.710938 201.289062 122.992188 202.089844 123.6875 203.726562 C 124.535156 203.910156 125.023438 203.195312 125.152344 201.574219 C 127.054688 203.25 128.011719 204.085938 128.011719 204.085938 C 126.667969 200.996094 125.996094 199.460938 125.996094 199.460938 C 125.941406 198.753906 125.988281 198.171875 126.152344 197.722656 C 128.15625 196.664062 129.160156 196.132812 129.160156 196.132812 C 129.324219 195.296875 129.398438 194.882812 129.398438 194.882812 Z M 121.039062 202.578125 C 121.566406 202.550781 122.023438 202.972656 122.050781 203.523438 C 122.078125 204.078125 121.675781 204.554688 121.152344 204.582031 C 120.628906 204.609375 120.167969 204.1875 120.140625 203.636719 C 120.113281 203.082031 120.515625 202.605469 121.039062 202.578125 Z M 128.65625 202.441406 C 129.34375 204.160156 130.585938 205.03125 132.359375 205.0625 C 132.214844 203.09375 131.660156 200.894531 130.703125 198.457031 C 130.390625 198.082031 130.070312 197.878906 129.738281 197.832031 C 127.929688 198.652344 127.019531 199.066406 127.019531 199.066406 C 128.386719 199.222656 129.078125 199.296875 129.078125 199.296875 C 128.324219 200.023438 128.1875 201.070312 128.664062 202.449219 Z M 128.65625 202.441406 " fill-opacity="1" fill-rule="evenodd"/><path fill="#fff3ea" d="M 127.984375 215.679688 C 129.683594 213.988281 130.90625 211.847656 131.660156 209.253906 C 125.371094 222.171875 110.449219 218.375 107.542969 208.96875 C 106.335938 205.070312 106.953125 201.207031 109.398438 197.390625 C 109.398438 197.390625 109.011719 197.160156 108.25 196.710938 C 108.25 196.710938 108.976562 195.554688 110.410156 193.246094 C 102.605469 199.15625 102.523438 208.847656 107.265625 214.871094 C 112.269531 221.207031 122.273438 222.347656 128.828125 217.078125 C 128.257812 216.140625 127.972656 215.671875 127.972656 215.671875 Z M 127.984375 215.679688 " fill-opacity="1" fill-rule="evenodd"/><path fill="#fff3ea" d="M 119.046875 212.039062 C 120.15625 210.523438 120.242188 209.628906 119.277344 209.363281 C 117.03125 208.894531 115.753906 207.699219 115.421875 205.796875 C 115.421875 205.796875 115.027344 206.042969 114.226562 206.539062 C 114.226562 206.539062 114.449219 205.6875 114.890625 203.964844 C 115.320312 203.25 115.148438 202.699219 114.363281 202.320312 C 112.976562 204.050781 112.277344 204.914062 112.277344 204.914062 C 112.785156 205.804688 112.855469 206.46875 112.507812 206.882812 C 111.992188 207.71875 112.101562 208.492188 112.820312 209.214844 C 115.992188 211.9375 118.0625 212.875 119.046875 212.039062 Z M 119.046875 212.039062 " fill-opacity="1" fill-rule="evenodd"/><path fill="#fff3ea" d="M 130.972656 189.191406 C 130.566406 189.730469 130.363281 190 130.363281 190 C 132.175781 191.386719 133.078125 192.078125 133.078125 192.078125 C 133.261719 193.117188 133.410156 193.585938 133.527344 193.476562 C 134.097656 193.402344 134.390625 193.363281 134.390625 193.363281 C 139.550781 200.132812 140.902344 206.890625 138.464844 213.640625 C 134.660156 222.539062 127.644531 226.910156 117.4375 226.734375 C 128.121094 227.597656 135.46875 223.421875 139.488281 214.199219 C 142.164062 206.714844 140.773438 199.460938 135.332031 192.4375 C 134.832031 192.378906 134.667969 192.058594 134.84375 191.46875 C 135.359375 190.042969 135.578125 188.371094 135.53125 186.449219 C 135.558594 184.683594 136.011719 183.027344 136.875 181.484375 C 135.367188 182.476562 134.613281 184.269531 134.632812 186.871094 C 134.613281 188.65625 134.300781 190.101562 133.695312 191.195312 C 132.636719 190.3125 131.734375 189.640625 130.980469 189.171875 Z M 130.972656 189.191406 " fill-opacity="1" fill-rule="evenodd"/><path fill="#fff3ea" d="M 124.976562 165.015625 C 124.636719 165.382812 123.808594 166.148438 122.503906 167.3125 C 123.605469 166.789062 124.691406 166.191406 125.75 165.53125 C 125.75 165.53125 127.714844 164.867188 131.652344 163.535156 C 132.691406 164.425781 133.214844 164.878906 133.214844 164.878906 C 130.117188 166.332031 128.5625 167.046875 128.5625 167.046875 C 127.496094 167.488281 125.253906 168.023438 121.839844 168.648438 C 117.996094 169.605469 115.917969 170.558594 115.617188 171.527344 C 117.324219 172.546875 118.171875 173.0625 118.171875 173.0625 C 115.773438 172.28125 114.578125 171.894531 114.578125 171.894531 C 114.660156 169.695312 114.707031 168.601562 114.707031 168.601562 C 120.175781 162.386719 123.992188 159.710938 129.566406 158.257812 C 131.0625 158.320312 131.808594 158.753906 131.800781 159.5625 C 128.65625 161.382812 127.054688 162.257812 126.988281 162.175781 C 127.074219 161.347656 127.109375 160.933594 127.109375 160.933594 C 123.855469 162.230469 120.710938 164.730469 117.839844 168.125 C 119.957031 167.46875 121.003906 167.148438 121.003906 167.148438 C 121.261719 165.816406 121.390625 165.144531 121.390625 165.144531 C 122.273438 164.636719 122.714844 164.390625 122.714844 164.390625 C 122.945312 165.789062 123.746094 165.667969 124.019531 163.386719 C 125.023438 162.882812 125.527344 162.625 125.527344 162.625 C 125.160156 164.214844 124.976562 165.007812 124.976562 165.007812 Z M 124.976562 165.015625 " fill-opacity="1" fill-rule="evenodd"/><path fill="#fff3ea" d="M 139.0625 151.242188 C 141.417969 151.332031 137.003906 154.78125 133.410156 157.714844 C 132.609375 156.765625 131.632812 156.226562 130.503906 156.105469 C 130.503906 156.105469 131.984375 154.984375 134.933594 152.738281 C 131.585938 153.890625 126.980469 156.296875 121.113281 159.96875 C 125.125 156.113281 128.140625 153.59375 130.179688 152.410156 C 133.105469 151.773438 134.960938 151.683594 135.742188 152.140625 C 137.4375 151.535156 138.539062 151.242188 139.074219 151.25 Z M 139.0625 151.242188 " fill-opacity="1" fill-rule="evenodd"/><path fill="#fff3ea" d="M 134.015625 143.316406 C 133.105469 142.863281 132.644531 142.644531 132.644531 142.644531 C 129.113281 144.269531 126.621094 146.597656 125.160156 149.613281 C 125.160156 149.613281 125.425781 149.898438 125.949219 150.46875 C 126.613281 151.195312 126.945312 151.5625 126.945312 151.5625 C 126.742188 150.707031 126.6875 150.304688 126.789062 150.367188 C 129.058594 148.390625 130.191406 147.398438 130.191406 147.398438 C 130.226562 145.273438 130.585938 144.355469 131.246094 144.613281 C 133.546875 148.527344 134.695312 150.496094 134.695312 150.496094 C 134.4375 148.8125 134.308594 147.976562 134.308594 147.976562 C 132.976562 145.53125 132.3125 144.308594 132.3125 144.308594 C 133.445312 143.507812 134.015625 143.175781 134.023438 143.316406 Z M 134.015625 143.316406 " fill-opacity="1" fill-rule="evenodd"/><path fill="#fff3ea" d="M 141.59375 141.476562 C 145.949219 137.144531 146.816406 136.675781 144.378906 136.898438 C 142.566406 137.152344 140.738281 137.558594 139.964844 138.3125 C 140.792969 138.332031 141.207031 138.339844 141.207031 138.339844 C 141.464844 140.4375 141.59375 141.476562 141.59375 141.476562 Z M 141.59375 141.476562 " fill-opacity="1" fill-rule="evenodd"/><path fill="#fff3ea" d="M 216.164062 130.515625 C 216.164062 130.515625 215.410156 127.289062 215.464844 126.71875 C 215.585938 126.285156 214.8125 125.382812 213.148438 124.023438 C 213.148438 124.023438 213.582031 123.941406 214.4375 123.765625 C 214.804688 122.78125 214.648438 121.734375 213.957031 120.628906 C 211.082031 113.015625 210.777344 111.996094 204.597656 105.714844 C 204.597656 105.714844 203.933594 107.277344 202.621094 110.40625 C 203.605469 103.941406 200.847656 102.066406 194.824219 102.589844 C 192.136719 103.25 190.519531 105.789062 189.976562 110.222656 C 189.976562 110.222656 191.585938 109.144531 194.8125 106.984375 C 193.214844 107.839844 191.578125 110.421875 189.914062 114.746094 C 189.914062 114.746094 188.855469 116.125 186.730469 118.882812 C 186.730469 118.882812 187.367188 119.554688 188.632812 120.886719 C 187.210938 120.171875 185.433594 119.941406 183.328125 120.1875 C 183.328125 120.1875 179.46875 122.578125 171.734375 127.351562 C 171.734375 127.351562 169.269531 127.546875 164.332031 127.941406 C 164.332031 127.941406 162.980469 127.703125 160.265625 127.234375 C 159.542969 126.746094 158.816406 126.910156 158.097656 127.757812 C 155.84375 130.707031 154.886719 132.105469 155.230469 131.941406 C 156.835938 134.265625 157.492188 135.371094 157.207031 135.242188 C 158.410156 136.042969 158.878906 135.582031 158.621094 133.863281 C 158.335938 133.136719 158.1875 132.769531 158.1875 132.769531 C 157.269531 132.613281 156.808594 132.527344 156.808594 132.527344 C 158.316406 132.097656 158.410156 131.609375 157.066406 131.058594 C 157.867188 130.929688 158.261719 130.863281 158.261719 130.863281 C 159.679688 129.171875 160.386719 128.335938 160.386719 128.335938 C 162.871094 128.785156 164.976562 129.667969 166.703125 131.003906 C 167.625 131.703125 169.296875 132.675781 168.679688 130.550781 C 169.949219 131.1875 170.59375 131.5 170.59375 131.5 C 172.167969 130.800781 173.324219 130.550781 173.949219 128.933594 C 174.714844 130.792969 175.089844 131.71875 175.089844 131.71875 C 180.523438 130.578125 184.847656 129.210938 189.105469 127.09375 C 188.222656 126.066406 187.007812 124.253906 187.007812 124.253906 C 190.242188 125.199219 191.9375 125.53125 193.230469 128.253906 C 197.839844 124.207031 197.773438 121.226562 192.550781 118.011719 C 193.8125 117.394531 194.953125 116.988281 198.316406 118.46875 C 199.300781 116.804688 199.464844 116.519531 199.464844 116.519531 C 201.058594 117.667969 201.847656 118.25 201.847656 118.25 C 204.339844 115.148438 208.71875 109.375 208.054688 118.46875 C 209.726562 118.09375 210.566406 117.898438 210.566406 117.898438 C 211.226562 119.472656 211.558594 120.261719 211.558594 120.261719 C 208.089844 120.289062 205.867188 120.355469 204.882812 120.4375 C 204.882812 120.539062 214.472656 128.574219 216.148438 130.507812 Z M 216.164062 130.515625 " fill-opacity="1" fill-rule="evenodd"/><path fill="#fff3ea" d="M 163.035156 133.089844 C 162.015625 133.707031 161.507812 134.007812 161.507812 134.007812 C 160.441406 133.511719 160.074219 132.59375 160.394531 131.25 C 161.167969 131.105469 161.5625 131.03125 161.5625 131.03125 C 161.765625 131.636719 161.859375 131.941406 161.859375 131.941406 C 162.089844 130.636719 162.628906 130.238281 163.46875 130.734375 C 164.5625 132.152344 164.421875 132.933594 163.035156 133.082031 Z M 163.035156 133.089844 " fill-opacity="1" fill-rule="evenodd"/><path fill="#fff3ea" d="M 213.488281 202.007812 C 212.964844 201.132812 213.535156 199.277344 215.191406 196.433594 C 216.421875 194.320312 218.730469 194.191406 220.992188 192.988281 C 220.992188 192.988281 217.441406 192.921875 216.019531 193.59375 C 216.019531 193.59375 215.953125 192.105469 215.769531 188.066406 C 215.769531 188.066406 215.273438 187.285156 214.28125 185.730469 C 214.28125 185.730469 216.523438 186.761719 218.1875 187.011719 C 219.21875 186.273438 218.253906 182.292969 217.617188 181.035156 C 217.617188 181.035156 216.46875 180.363281 213.5625 178.6875 C 213.5625 178.6875 213.914062 178.191406 215.191406 177.546875 C 213.515625 176.28125 207.992188 178.957031 205.710938 179.242188 C 207.585938 177.871094 209.121094 176.132812 210.316406 174.035156 C 210.316406 174.035156 209.34375 174.726562 207.394531 176.113281 C 207.394531 176.113281 205.609375 175.96875 202.042969 175.664062 C 202.042969 175.664062 202.695312 175.148438 204 174.128906 C 204 174.128906 201.820312 172.472656 197.472656 169.152344 C 196.589844 168.75 195.410156 168.851562 193.957031 169.464844 C 193.8125 169.578125 193.820312 169.0625 193.996094 167.910156 C 191.292969 169.328125 188.550781 170.15625 185.765625 170.402344 C 187.613281 171.535156 191.054688 175.664062 192.332031 177.292969 C 191.347656 176.464844 185.636719 172.832031 183.980469 171.800781 C 182.628906 171.359375 181.792969 170.375 181.460938 168.839844 C 180.847656 164.417969 181.296875 161.667969 182.8125 160.59375 C 184.496094 157.992188 190.445312 154.191406 200.671875 149.179688 C 207.0625 146.054688 210.710938 144.445312 217.765625 146.054688 C 217.214844 144.832031 214.214844 143.828125 212.257812 143.8125 C 212.257812 143.8125 211.898438 144.015625 214.539062 142.515625 C 215.449219 141.796875 217.175781 141.667969 219.714844 142.109375 C 218.417969 139.261719 216.230469 139.847656 213.441406 139.601562 C 213.441406 139.601562 212.800781 140.355469 211.523438 141.871094 C 211.523438 141.871094 211.566406 140.878906 211.667969 138.890625 C 211.144531 137.78125 208.726562 134.257812 205.289062 130.875 C 205.914062 130.863281 208.3125 132.429688 211.59375 133.007812 C 211.503906 132.933594 211.933594 132.472656 212.882812 131.636719 C 215.675781 134.378906 216.007812 134.707031 216.007812 134.707031 C 215.164062 135.121094 212.578125 135.1875 212.578125 135.1875 C 215.59375 136.675781 219.164062 137.742188 219.164062 137.742188 C 219.621094 138.027344 219.960938 138.605469 220.183594 139.480469 C 220.84375 141.84375 221.175781 143.019531 221.175781 143.019531 C 222.582031 144.90625 222.445312 145.980469 222.804688 146.835938 C 221.929688 146.679688 221.488281 146.597656 221.488281 146.597656 C 224.585938 150.128906 225.949219 154.148438 224.375 158.707031 C 223.457031 153.972656 218.363281 152.132812 218.382812 152.160156 C 219.484375 153.421875 220.175781 155.460938 220.046875 156.519531 C 214.480469 154.679688 211.722656 154.136719 209.757812 154.238281 C 209.875 155.671875 209.929688 156.398438 209.929688 156.398438 C 204.148438 158.359375 201.371094 159.433594 201.617188 159.636719 C 201.425781 160.59375 201.324219 161.078125 201.324219 161.078125 C 199.179688 159.691406 197.535156 158.753906 196.40625 158.246094 C 197.757812 160.28125 197.417969 159.773438 197.417969 159.773438 C 194.050781 160.511719 191.496094 161.871094 189.765625 162.570312 C 200.691406 162.109375 200.421875 163.65625 208.449219 170.144531 C 208.800781 170.429688 208.0625 171.488281 208.0625 171.488281 C 209.378906 170.753906 211.035156 170.828125 211.035156 170.828125 C 216.460938 175.65625 218.519531 177.484375 218.519531 177.484375 C 218.59375 177.804688 218.667969 178.429688 218.667969 178.429688 C 222.179688 179.976562 225.828125 182.46875 229.597656 185.886719 C 227.960938 189.980469 227.144531 192.03125 227.144531 192.03125 C 225.351562 195.78125 222.859375 198.027344 216.902344 201.878906 C 215.109375 203.039062 215.152344 202.945312 213.441406 202.007812 Z M 213.488281 202.007812 " fill-opacity="1" fill-rule="evenodd"/><path fill="#fff3ea" d="M 259.785156 191.066406 C 260.660156 190.476562 261.101562 190.191406 261.101562 190.191406 C 261.101562 190.191406 252.953125 189.667969 236.671875 188.609375 C 236.671875 188.609375 235.015625 188.125 231.695312 187.148438 C 230.710938 191.910156 230.222656 194.292969 230.222656 194.292969 C 231.972656 196.09375 232.84375 196.996094 232.84375 196.996094 C 228.375 199.882812 226.140625 201.328125 226.140625 201.328125 C 230.222656 200.445312 232.265625 200.003906 232.265625 200.003906 C 239.089844 202.523438 242.507812 203.78125 242.507812 203.78125 C 242.976562 206.070312 243.261719 207.542969 243.363281 208.195312 C 244.863281 204.8125 245.460938 202.136719 245.15625 200.167969 C 244.414062 198.3125 243.59375 196.582031 242.710938 194.972656 L 258.875 195.019531 C 248.285156 195.386719 246.621094 207.929688 255.335938 213.050781 C 238.921875 210.539062 227.179688 207.921875 220.101562 205.179688 C 220.761719 206.0625 221.609375 206.761719 222.628906 207.277344 C 235.4375 210.9375 247.21875 213.28125 257.976562 214.328125 C 263.953125 214.910156 269.066406 210.054688 268.652344 203.984375 C 268.292969 198.808594 264.097656 193.871094 257.453125 193.898438 L 239.585938 193.933594 C 240.597656 193.410156 241.523438 192.96875 241.3125 192.636719 C 240.890625 191.976562 240.652344 191.636719 240.203125 191.019531 C 253.25 191.054688 259.777344 191.074219 259.777344 191.074219 Z M 259.023438 196.636719 C 263.144531 196.417969 266.664062 199.691406 266.902344 203.964844 C 267.132812 208.234375 263.988281 211.875 259.871094 212.105469 C 255.75 212.324219 252.230469 209.050781 251.988281 204.777344 C 251.757812 200.507812 254.90625 196.867188 259.023438 196.636719 Z M 259.023438 196.636719 " fill-opacity="1" fill-rule="evenodd"/><path fill="#fff3ea" d="M 259.566406 200.96875 C 261.230469 200.875 262.664062 202.210938 262.757812 203.929688 C 262.847656 205.660156 261.570312 207.128906 259.90625 207.222656 C 258.242188 207.3125 256.808594 205.980469 256.714844 204.261719 C 256.625 202.53125 257.894531 201.0625 259.566406 200.96875 Z M 259.757812 202.199219 C 260.753906 202.144531 261.597656 202.9375 261.664062 203.964844 C 261.71875 204.996094 260.953125 205.871094 259.972656 205.925781 C 258.976562 205.980469 258.132812 205.1875 258.066406 204.160156 C 258.011719 203.128906 258.777344 202.257812 259.757812 202.199219 Z M 259.757812 202.199219 " fill-opacity="1" fill-rule="evenodd"/><path fill="#fff3ea" d="M 256.015625 184.425781 C 267.300781 183.808594 276.964844 192.839844 277.597656 204.582031 C 278.175781 215.230469 271.144531 224.453125 261.414062 226.539062 C 261.433594 226.253906 261.414062 226.851562 261.414062 226.539062 C 270.664062 224.160156 276.84375 215.46875 276.273438 204.96875 C 275.703125 194.457031 266.519531 185.308594 255.84375 185.886719 C 253.671875 186.007812 251.613281 186.484375 249.710938 187.277344 L 247.417969 186.917969 C 249.992188 185.476562 252.898438 184.59375 256.015625 184.417969 Z M 256.015625 184.425781 " fill-opacity="1" fill-rule="evenodd"/><path fill="#fff3ea" d="M 239.023438 149.210938 C 244.15625 148.960938 250.25 148.769531 257.480469 148.960938 C 253.949219 149.816406 249.203125 151.976562 246.757812 154.46875 C 246.757812 154.46875 246.886719 153.769531 246.886719 152.941406 C 246.886719 152.941406 245.523438 153.136719 240.035156 153.933594 C 238.820312 154.257812 237.636719 154.964844 236.496094 156.050781 C 236.496094 156.050781 233.976562 159.074219 228.9375 165.136719 C 228.9375 165.136719 228.863281 164.539062 228.714844 163.351562 C 228.714844 163.351562 220.230469 165.960938 214.355469 167.976562 C 213.128906 168.269531 218.472656 166.246094 219.273438 165.109375 C 221.488281 162.589844 222.058594 161.945312 222.058594 161.945312 C 223.4375 161.375 228.082031 159.683594 231.164062 158.277344 C 234.820312 156.609375 235.117188 154.917969 237.066406 151.71875 C 234.527344 154.109375 234.316406 152.382812 231.578125 156.722656 C 232.753906 154.421875 233.582031 152.804688 234.058594 151.875 C 235.125 149.789062 236.605469 149.355469 239.023438 149.210938 Z M 239.023438 149.210938 " fill-opacity="1" fill-rule="evenodd"/><path fill="#fff3ea" d="M 148.359375 156.539062 C 148.976562 155.160156 150.226562 153.621094 152.753906 152.011719 C 166.601562 143.1875 179.3125 142.976562 190.878906 151.378906 C 185.636719 148.371094 181.121094 147.316406 177.324219 148.214844 C 177.148438 148.804688 177.066406 149.097656 177.066406 149.097656 C 165.730469 148.484375 156.15625 151.984375 148.359375 156.546875 Z M 148.359375 156.539062 " fill-opacity="1" fill-rule="evenodd"/><path fill="#fff3ea" d="M 155.027344 158 C 160.792969 158.082031 167.726562 161.464844 175.835938 168.140625 C 173.804688 166.046875 171.171875 162.660156 165.757812 158.734375 C 171.714844 157.226562 178.675781 155.683594 183.523438 155.882812 C 178.722656 154.320312 171.496094 153.816406 165.738281 154.101562 C 157.875 154.488281 151.421875 156.4375 145.398438 159.957031 C 142.871094 161.4375 142.566406 162.984375 140.753906 166.761719 C 146.375 165.335938 149.1875 164.628906 149.1875 164.628906 C 150.375 164.527344 152.285156 165.253906 156.496094 168.070312 C 156.210938 167.425781 154.035156 164.859375 154.035156 164.859375 C 156.113281 163.378906 158.730469 161.117188 160.066406 160.8125 C 159.027344 159.671875 157.34375 158.734375 155.015625 157.992188 Z M 155.027344 158 " fill-opacity="1" fill-rule="evenodd"/><path fill="#fff3ea" d="M 158.988281 222.863281 C 159.042969 222.605469 157.675781 222.28125 157.757812 221.871094 C 158.59375 218 160.636719 208.5625 160.636719 208.066406 C 160.636719 208.066406 160.515625 207 160.148438 204.003906 C 160.148438 204.003906 157.351562 203.949219 154.097656 204.085938 L 160.09375 200.988281 L 161.71875 197.355469 C 157.011719 199.296875 153.804688 200.480469 150.859375 201.539062 C 152.039062 206.429688 152.625 208.875 152.625 208.875 C 152.828125 212.078125 152.441406 216.859375 151.484375 223.25 C 150.042969 220.683594 149.324219 219.40625 149.324219 219.40625 C 150.21875 223.625 150.660156 225.742188 150.660156 225.742188 C 150.796875 226.238281 151.089844 226.402344 151.523438 226.253906 C 155.449219 224.40625 158.988281 222.878906 158.988281 222.878906 Z M 155.035156 221.445312 C 155.476562 221.328125 155.910156 221.546875 155.992188 221.953125 C 156.074219 222.347656 155.78125 222.769531 155.328125 222.898438 C 154.886719 223.019531 154.457031 222.796875 154.375 222.394531 C 154.289062 222 154.585938 221.574219 155.035156 221.445312 Z M 155.035156 221.445312 " fill-opacity="1" fill-rule="evenodd"/><path fill="#fff3ea" d="M 200.71875 224.601562 C 200.71875 224.601562 195.292969 225.105469 184.449219 226.109375 C 187.082031 224.332031 186.058594 223.195312 185.765625 217.300781 C 187.898438 216.277344 188.964844 215.765625 188.964844 215.765625 C 189.222656 216.628906 189.71875 216.996094 190.445312 216.859375 C 205.269531 212.25 212.679688 209.953125 212.679688 209.953125 C 213.726562 209.539062 215.878906 209.898438 219.117188 211.027344 C 215.21875 213.714844 208.035156 219.066406 208.035156 219.066406 C 211.585938 214.613281 213.03125 212.941406 213.03125 212.941406 C 211.511719 212.324219 211.890625 212.480469 211.890625 212.480469 C 210.933594 212.25 210.058594 212.25 209.285156 212.5 C 195.953125 217.105469 189.289062 219.40625 189.289062 219.40625 C 189.167969 220.390625 189.148438 221.390625 189.425781 222.089844 C 190.085938 223.753906 199.53125 224.554688 200.71875 224.601562 Z M 200.71875 224.601562 " fill-opacity="1" fill-rule="evenodd"/><path fill="#fff3ea" d="M 223.675781 216.140625 C 224.007812 216.554688 224.292969 217.171875 224.523438 218.015625 C 224.835938 217.289062 224.863281 216.433594 224.597656 215.441406 C 224.597656 215.441406 224.273438 214.871094 223.640625 213.730469 C 222.878906 212.933594 221.96875 212.746094 220.917969 213.171875 C 212.972656 218.972656 209.003906 221.871094 209.003906 221.871094 C 210.199219 221.804688 210.796875 221.769531 210.796875 221.769531 C 211.6875 223.394531 212.835938 224.324219 214.226562 224.554688 C 214.085938 225.878906 214.023438 226.550781 214.023438 226.550781 C 215.890625 225.125 216.816406 224.417969 216.816406 224.417969 C 214.933594 223.910156 214.382812 221.648438 215.742188 220.636719 C 219.632812 217.703125 221.570312 216.234375 221.570312 216.234375 C 222.527344 215.617188 223.234375 215.589844 223.675781 216.148438 Z M 223.675781 216.140625 " fill-opacity="1" fill-rule="evenodd"/><path fill="#fff3ea" d="M 195.28125 202.699219 C 194.8125 203.746094 195.109375 204.066406 196.175781 203.671875 C 196.175781 203.671875 197.636719 202.882812 200.570312 201.300781 C 201.269531 200.777344 201.488281 200.105469 201.230469 199.285156 C 200.957031 198.457031 200.375 198.402344 199.484375 199.101562 C 199.484375 199.101562 198.085938 200.308594 195.28125 202.707031 Z M 208.890625 199.480469 C 208.789062 199.902344 208.644531 200.207031 208.441406 200.371094 L 207.605469 200.417969 L 207.382812 196.351562 C 207.375 196.132812 207.179688 195.957031 206.960938 195.976562 L 206.59375 195.992188 C 206.371094 196.003906 206.199219 196.195312 206.214844 196.417969 L 206.4375 200.480469 L 205.414062 200.535156 C 205.644531 200.207031 205.214844 201.105469 204.109375 203.238281 C 204.597656 204.058594 204.503906 204.507812 203.84375 204.582031 C 203.84375 204.582031 203.199219 204.160156 201.914062 203.324219 C 201.480469 203.09375 200.992188 203.039062 200.449219 203.15625 C 200.449219 203.15625 197.398438 204.40625 191.300781 206.910156 C 190.886719 207.167969 190.703125 207.460938 190.757812 207.808594 C 190.757812 207.808594 190.8125 208.519531 190.933594 209.933594 C 190.933594 209.933594 190.316406 210 189.085938 210.128906 C 189.085938 210.128906 189.058594 209.757812 188.992188 209.015625 C 189.203125 209.070312 189.453125 209.023438 189.730469 208.886719 C 190.050781 208.289062 189.746094 208.019531 188.820312 208.09375 C 188.820312 208.09375 188.734375 206.964844 188.570312 204.703125 C 188.523438 204.34375 188.808594 203.957031 189.433594 203.542969 C 189.433594 203.542969 190.621094 203.25 192.984375 202.667969 C 192.984375 202.667969 196.035156 199.949219 202.140625 194.496094 C 202.925781 194.0625 203.632812 193.824219 204.277344 193.789062 C 206.667969 193.660156 207.863281 193.59375 207.863281 193.59375 C 208.386719 193.796875 208.671875 194.570312 208.699219 195.902344 C 208.828125 198.292969 208.890625 199.488281 208.890625 199.488281 Z M 203.394531 198.042969 C 202.996094 197.492188 203.097656 196.886719 203.695312 196.234375 C 206.058594 195.285156 205.8125 199.78125 203.394531 198.042969 Z M 203.394531 198.042969 " fill-opacity="1" fill-rule="evenodd"/><path fill="#fff3ea" d="M 175.484375 227.433594 C 177.105469 227.910156 179.382812 226.878906 182.316406 224.332031 C 179.679688 225.695312 177.746094 226.292969 176.535156 226.136719 C 176.535156 226.136719 174.640625 225.390625 170.84375 223.902344 C 170.84375 223.902344 171.226562 223.386719 172 222.347656 C 162.417969 222.558594 158.871094 223.039062 161.363281 223.792969 C 170.785156 226.210938 175.496094 227.421875 175.496094 227.421875 Z M 175.484375 227.433594 " fill-opacity="1" fill-rule="evenodd"/><path fill="#fff3ea" d="M 176.800781 201.363281 C 174.472656 200.011719 171.945312 196.921875 172.167969 191.984375 C 171.292969 194.367188 170.246094 195.019531 168.054688 196.078125 C 166.824219 196.675781 167.625 197.207031 168.746094 198.183594 C 171.042969 200.1875 174.246094 203 176.800781 201.363281 Z M 176.800781 201.363281 " fill-opacity="1" fill-rule="evenodd"/><path fill="#fff3ea" d="M 176.054688 194.835938 C 176.148438 195.359375 176.367188 195.902344 176.636719 196.445312 C 176.753906 196.703125 176.230469 197.015625 176.394531 197.253906 C 177.8125 199.230469 181.453125 200.554688 185.269531 198.496094 C 183.632812 199.828125 179.566406 201.585938 176.046875 198.007812 C 170.125 190.855469 179.300781 184.683594 182.003906 186.46875 C 181.433594 185.390625 180.863281 184.859375 180.863281 184.859375 C 183.613281 182.109375 184.109375 181.613281 184.109375 181.613281 C 189.269531 186.238281 191.292969 188.050781 191.292969 188.050781 C 192.066406 188.683594 192.019531 189.714844 191.402344 190.265625 L 188.433594 193.722656 C 187.964844 191.480469 186.75 188.878906 184.25 187.617188 C 191.054688 195.304688 181.234375 202.625 176.066406 194.84375 Z M 180.460938 189.363281 C 181.792969 189.289062 182.933594 190.386719 183.007812 191.792969 C 183.007812 191.839844 183.007812 191.882812 183.007812 191.921875 C 182.757812 190.992188 181.929688 190.339844 180.992188 190.386719 C 179.898438 190.441406 179.070312 191.433594 179.136719 192.59375 C 179.183594 193.476562 179.734375 194.199219 180.46875 194.476562 C 179.253906 194.402344 178.261719 193.363281 178.1875 192.050781 C 178.117188 190.632812 179.125 189.429688 180.460938 189.355469 Z M 192.515625 186.835938 C 193.628906 186.109375 194.832031 183.773438 194.445312 181.742188 C 192.378906 184.5 191.347656 185.878906 191.347656 185.878906 C 191.558594 186.367188 192.191406 186.925781 192.515625 186.835938 Z M 187.484375 181.960938 C 188.882812 180.34375 189.480469 179.039062 189.261719 178.0625 C 187.402344 180.289062 186.511719 181.417969 186.601562 181.476562 C 186.886719 182.082031 187.183594 182.246094 187.496094 181.972656 Z M 187.484375 181.960938 " fill-opacity="1" fill-rule="evenodd"/><path fill="#fff3ea" d="M 170.59375 216.113281 C 173.003906 211.894531 174.214844 209.785156 174.214844 209.785156 C 174.214844 209.785156 176.765625 208.039062 181.859375 204.535156 C 181.859375 204.535156 181.324219 204.234375 180.257812 203.636719 C 180.257812 203.636719 174.648438 205.59375 163.421875 209.5 C 166.300781 209.261719 167.734375 209.144531 167.734375 209.144531 C 169.445312 209.390625 170.300781 209.988281 170.308594 210.925781 C 168.609375 213.871094 167.761719 215.339844 167.761719 215.339844 C 164.71875 218.117188 163.382812 219.421875 163.761719 219.277344 C 168.3125 217.171875 170.585938 216.121094 170.585938 216.121094 Z M 170.59375 216.113281 " fill-opacity="1" fill-rule="evenodd"/><path fill="#fff3ea" d="M 175.605469 135.074219 C 178.648438 134.789062 180.164062 134.644531 180.164062 134.644531 C 180.164062 134.644531 177.804688 136.8125 173.085938 141.164062 C 173.085938 141.164062 173.207031 141.835938 173.445312 143.1875 C 173.195312 143.148438 171.953125 143.03125 169.710938 142.828125 C 169.710938 142.828125 168.800781 143.1875 166.980469 143.902344 C 168.800781 142.40625 169.710938 141.652344 169.710938 141.652344 C 170.675781 141.144531 171.15625 140.886719 171.15625 140.886719 C 173.960938 137.808594 175.367188 136.261719 175.367188 136.261719 C 175.53125 135.472656 175.613281 135.074219 175.613281 135.074219 Z M 175.605469 135.074219 " fill-opacity="1" fill-rule="evenodd"/><path fill="#fff3ea" d="M 187.917969 107.519531 C 186.472656 110.210938 185.738281 113.097656 185.730469 116.1875 C 185.730469 116.1875 183.917969 117.484375 180.304688 120.078125 C 181.011719 117.144531 181.371094 115.683594 181.371094 115.683594 C 182.667969 115.988281 183.3125 116.132812 183.3125 116.132812 C 184.101562 112.226562 185.636719 109.355469 187.917969 107.519531 Z M 187.917969 107.519531 " fill-opacity="1" fill-rule="evenodd"/><path fill="#fff3ea" d="M 185.875 107.039062 C 182.382812 108.445312 180.636719 109.15625 180.636719 109.15625 C 182.058594 110.746094 182.777344 111.546875 182.777344 111.546875 C 183.890625 109.273438 184.917969 107.777344 185.875 107.039062 Z M 185.875 107.039062 " fill-opacity="1" fill-rule="evenodd"/><path fill="#fff3ea" d="M 201.757812 90.910156 C 200.753906 91.914062 199.796875 92.207031 198.898438 91.8125 C 191.953125 85.265625 186.058594 83.195312 181.214844 85.585938 C 181.914062 85.402344 183.210938 85.429688 185.121094 85.6875 C 183.945312 86.140625 183.097656 87.28125 182.585938 89.109375 C 182.839844 89.0625 182.308594 89.273438 181.011719 89.753906 C 182.96875 89.808594 184.109375 90.242188 184.421875 91.050781 C 181.839844 95.34375 179.863281 97.726562 178.492188 98.183594 C 178.4375 98.121094 176.230469 98.984375 171.882812 100.777344 C 170.980469 101.164062 169.792969 101.78125 168.332031 102.644531 C 168.277344 102.597656 168.835938 98.625 170.03125 90.71875 C 172.40625 86.398438 175.980469 83.628906 180.746094 82.40625 C 189.304688 80.207031 194.988281 85.84375 201.757812 90.921875 Z M 178.90625 96.207031 C 177.960938 96.675781 177.488281 96.90625 177.488281 96.90625 C 178.144531 95.941406 178.546875 94.570312 178.695312 92.789062 C 178.300781 92.417969 176.046875 91.933594 171.925781 91.324219 C 177.730469 91.261719 180.625 91.222656 180.625 91.222656 C 181.113281 91.703125 180.542969 93.367188 178.914062 96.207031 Z M 178.90625 96.207031 " fill-opacity="1" fill-rule="evenodd"/><path fill="#fff3ea" d="M 196.238281 97.128906 C 196.414062 97.882812 196.5625 98.828125 196.671875 99.988281 C 197.582031 98.453125 198.050781 96.503906 198.085938 94.148438 C 195.496094 95.859375 194.199219 96.714844 194.199219 96.714844 C 195.558594 96.988281 196.230469 97.128906 196.230469 97.128906 Z M 196.238281 97.128906 " fill-opacity="1" fill-rule="evenodd"/><path fill="#fff3ea" d="M 191.578125 102.460938 C 183.753906 104.757812 175.851562 107.894531 171.882812 110.40625 C 170.492188 107.589844 169.792969 106.183594 169.792969 106.183594 C 171.382812 107.417969 172.183594 108.03125 172.183594 108.03125 C 174.777344 103.859375 176.984375 101.164062 178.804688 99.933594 C 177.480469 102.976562 176.957031 104.410156 177.242188 104.226562 C 182.34375 101.21875 185.8125 99.601562 187.632812 99.390625 C 187.367188 99.859375 187.238281 100.089844 187.238281 100.089844 C 190.132812 101.660156 191.578125 102.453125 191.578125 102.453125 Z M 191.578125 102.460938 " fill-opacity="1" fill-rule="evenodd"/><path fill="#fff3ea" d="M 149.914062 199.15625 C 146.730469 189.601562 143.257812 181.125 139.816406 175.175781 C 144.046875 175.433594 147.054688 175.644531 151.421875 175.597656 C 149.71875 178.292969 146.917969 182.386719 146.917969 182.386719 C 148.257812 182.523438 150.417969 181.933594 150.417969 181.933594 L 153.75 190.714844 L 157.242188 189.320312 C 157.242188 189.320312 151.957031 197.0625 149.914062 199.15625 Z M 149.914062 199.15625 " fill-opacity="1" fill-rule="evenodd"/><path fill="#fff3ea" d="M 192.136719 141.210938 C 193.121094 145.578125 193.609375 147.757812 193.609375 147.757812 C 193.609375 147.757812 192.3125 145.179688 189.71875 140.042969 C 189.71875 140.042969 190.171875 139.929688 191.0625 139.71875 C 191.0625 139.71875 189.828125 139.003906 187.355469 137.566406 C 187.355469 137.566406 187.53125 136.980469 187.878906 135.800781 C 190.269531 134.183594 191.46875 133.375 191.46875 133.375 C 190.355469 135.746094 189.800781 136.933594 189.800781 136.933594 C 194.804688 139.304688 197.304688 140.492188 197.304688 140.492188 C 193.867188 140.96875 192.136719 141.210938 192.136719 141.210938 Z M 192.136719 141.210938 " fill-opacity="1" fill-rule="evenodd"/><path fill="#fff3ea" d="M 173.867188 173.660156 C 175.808594 175.203125 176.78125 175.976562 176.78125 175.976562 C 171.523438 179.140625 168.148438 181.292969 166.410156 182.421875 C 163.367188 184.398438 162.089844 181.519531 159.742188 178.203125 C 158.722656 176.933594 162.382812 177.75 162.382812 177.75 C 164.480469 178.21875 168.222656 177.417969 174.402344 175.058594 C 173.773438 174.21875 173.867188 173.660156 173.867188 173.660156 Z M 173.867188 173.660156 " fill-opacity="1" fill-rule="evenodd"/><g clip-path="url(#217458ba2c)"><g clip-path="url(#6beb9255a6)"><path fill="#ed0000" d="M 37.5 299.75 L 337.4375 299.75 L 337.4375 333.21875 L 37.5 333.21875 Z M 37.5 299.75 " fill-opacity="1" fill-rule="nonzero"/></g></g><g fill="#fff3ea" fill-opacity="1"><g transform="translate(74.290393, 323.717324)"><g><path d="M 3.53125 -5.75 L 3.53125 -4.09375 C 3.53125 -3.445312 3.660156 -2.992188 3.921875 -2.734375 C 4.191406 -2.484375 4.546875 -2.359375 4.984375 -2.359375 C 5.429688 -2.359375 5.785156 -2.484375 6.046875 -2.734375 C 6.304688 -2.992188 6.4375 -3.445312 6.4375 -4.09375 L 6.4375 -8.015625 C 6.4375 -8.660156 6.304688 -9.113281 6.046875 -9.375 C 5.785156 -9.644531 5.429688 -9.78125 4.984375 -9.78125 C 4.546875 -9.78125 4.191406 -9.644531 3.921875 -9.375 C 3.660156 -9.113281 3.53125 -8.660156 3.53125 -8.015625 L 3.53125 -7.484375 L 0.890625 -7.484375 L 1.40625 -17.8125 L 8.78125 -17.8125 L 8.78125 -15.265625 L 3.921875 -15.265625 L 3.6875 -11.015625 C 4.21875 -11.878906 5.035156 -12.3125 6.140625 -12.3125 C 7.171875 -12.3125 7.941406 -11.960938 8.453125 -11.265625 C 8.972656 -10.578125 9.234375 -9.570312 9.234375 -8.25 L 9.234375 -4.28125 C 9.234375 -2.832031 8.878906 -1.722656 8.171875 -0.953125 C 7.472656 -0.179688 6.4375 0.203125 5.0625 0.203125 C 3.6875 0.203125 2.644531 -0.179688 1.9375 -0.953125 C 1.238281 -1.722656 0.890625 -2.832031 0.890625 -4.28125 L 0.890625 -5.75 Z M 3.53125 -5.75 "/></g></g></g><g fill="#fff3ea" fill-opacity="1"><g transform="translate(85.388112, 323.717324)"><g><path d="M 3.59375 -4.09375 C 3.59375 -3.445312 3.722656 -2.992188 3.984375 -2.734375 C 4.242188 -2.472656 4.597656 -2.34375 5.046875 -2.34375 C 5.484375 -2.34375 5.832031 -2.472656 6.09375 -2.734375 C 6.351562 -2.992188 6.484375 -3.445312 6.484375 -4.09375 L 6.484375 -13.71875 C 6.484375 -14.363281 6.351562 -14.816406 6.09375 -15.078125 C 5.832031 -15.335938 5.484375 -15.46875 5.046875 -15.46875 C 4.597656 -15.46875 4.242188 -15.335938 3.984375 -15.078125 C 3.722656 -14.816406 3.59375 -14.363281 3.59375 -13.71875 Z M 0.78125 -13.546875 C 0.78125 -14.984375 1.144531 -16.085938 1.875 -16.859375 C 2.613281 -17.628906 3.671875 -18.015625 5.046875 -18.015625 C 6.410156 -18.015625 7.457031 -17.628906 8.1875 -16.859375 C 8.925781 -16.085938 9.296875 -14.984375 9.296875 -13.546875 L 9.296875 -4.28125 C 9.296875 -2.832031 8.925781 -1.722656 8.1875 -0.953125 C 7.457031 -0.179688 6.410156 0.203125 5.046875 0.203125 C 3.671875 0.203125 2.613281 -0.179688 1.875 -0.953125 C 1.144531 -1.722656 0.78125 -2.832031 0.78125 -4.28125 Z M 0.78125 -13.546875 "/></g></g></g><g fill="#fff3ea" fill-opacity="1"><g transform="translate(96.485831, 323.717324)"><g><path d="M 3.59375 -4.09375 C 3.59375 -3.445312 3.722656 -2.992188 3.984375 -2.734375 C 4.242188 -2.472656 4.597656 -2.34375 5.046875 -2.34375 C 5.484375 -2.34375 5.832031 -2.472656 6.09375 -2.734375 C 6.351562 -2.992188 6.484375 -3.445312 6.484375 -4.09375 L 6.484375 -13.71875 C 6.484375 -14.363281 6.351562 -14.816406 6.09375 -15.078125 C 5.832031 -15.335938 5.484375 -15.46875 5.046875 -15.46875 C 4.597656 -15.46875 4.242188 -15.335938 3.984375 -15.078125 C 3.722656 -14.816406 3.59375 -14.363281 3.59375 -13.71875 Z M 0.78125 -13.546875 C 0.78125 -14.984375 1.144531 -16.085938 1.875 -16.859375 C 2.613281 -17.628906 3.671875 -18.015625 5.046875 -18.015625 C 6.410156 -18.015625 7.457031 -17.628906 8.1875 -16.859375 C 8.925781 -16.085938 9.296875 -14.984375 9.296875 -13.546875 L 9.296875 -4.28125 C 9.296875 -2.832031 8.925781 -1.722656 8.1875 -0.953125 C 7.457031 -0.179688 6.410156 0.203125 5.046875 0.203125 C 3.671875 0.203125 2.613281 -0.179688 1.875 -0.953125 C 1.144531 -1.722656 0.78125 -2.832031 0.78125 -4.28125 Z M 0.78125 -13.546875 "/></g></g></g><g fill="#fff3ea" fill-opacity="1"><g transform="translate(107.583551, 323.717324)"><g><path d="M 9.140625 -6.640625 L 9.140625 -4.28125 C 9.140625 -2.832031 8.785156 -1.722656 8.078125 -0.953125 C 7.378906 -0.179688 6.34375 0.203125 4.96875 0.203125 C 3.59375 0.203125 2.550781 -0.179688 1.84375 -0.953125 C 1.132812 -1.722656 0.78125 -2.832031 0.78125 -4.28125 L 0.78125 -13.546875 C 0.78125 -14.984375 1.132812 -16.085938 1.84375 -16.859375 C 2.550781 -17.628906 3.59375 -18.015625 4.96875 -18.015625 C 6.34375 -18.015625 7.378906 -17.628906 8.078125 -16.859375 C 8.785156 -16.085938 9.140625 -14.984375 9.140625 -13.546875 L 9.140625 -11.8125 L 6.484375 -11.8125 L 6.484375 -13.71875 C 6.484375 -14.363281 6.351562 -14.816406 6.09375 -15.078125 C 5.832031 -15.335938 5.484375 -15.46875 5.046875 -15.46875 C 4.597656 -15.46875 4.242188 -15.335938 3.984375 -15.078125 C 3.722656 -14.816406 3.59375 -14.363281 3.59375 -13.71875 L 3.59375 -4.09375 C 3.59375 -3.445312 3.722656 -2.992188 3.984375 -2.734375 C 4.242188 -2.484375 4.597656 -2.359375 5.046875 -2.359375 C 5.484375 -2.359375 5.832031 -2.484375 6.09375 -2.734375 C 6.351562 -2.992188 6.484375 -3.445312 6.484375 -4.09375 L 6.484375 -6.640625 Z M 9.140625 -6.640625 "/></g></g></g><g fill="#fff3ea" fill-opacity="1"><g transform="translate(118.42673, 323.717324)"><g><path d="M 9.140625 -6.640625 L 9.140625 -4.28125 C 9.140625 -2.832031 8.785156 -1.722656 8.078125 -0.953125 C 7.378906 -0.179688 6.34375 0.203125 4.96875 0.203125 C 3.59375 0.203125 2.550781 -0.179688 1.84375 -0.953125 C 1.132812 -1.722656 0.78125 -2.832031 0.78125 -4.28125 L 0.78125 -13.546875 C 0.78125 -14.984375 1.132812 -16.085938 1.84375 -16.859375 C 2.550781 -17.628906 3.59375 -18.015625 4.96875 -18.015625 C 6.34375 -18.015625 7.378906 -17.628906 8.078125 -16.859375 C 8.785156 -16.085938 9.140625 -14.984375 9.140625 -13.546875 L 9.140625 -11.8125 L 6.484375 -11.8125 L 6.484375 -13.71875 C 6.484375 -14.363281 6.351562 -14.816406 6.09375 -15.078125 C 5.832031 -15.335938 5.484375 -15.46875 5.046875 -15.46875 C 4.597656 -15.46875 4.242188 -15.335938 3.984375 -15.078125 C 3.722656 -14.816406 3.59375 -14.363281 3.59375 -13.71875 L 3.59375 -4.09375 C 3.59375 -3.445312 3.722656 -2.992188 3.984375 -2.734375 C 4.242188 -2.484375 4.597656 -2.359375 5.046875 -2.359375 C 5.484375 -2.359375 5.832031 -2.484375 6.09375 -2.734375 C 6.351562 -2.992188 6.484375 -3.445312 6.484375 -4.09375 L 6.484375 -6.640625 Z M 9.140625 -6.640625 "/></g></g></g><g fill="#fff3ea" fill-opacity="1"><g transform="translate(129.269912, 323.717324)"><g/></g></g><g fill="#fff3ea" fill-opacity="1"><g transform="translate(134.233426, 323.717324)"><g><path d="M 5.25 -17.8125 C 6.707031 -17.8125 7.757812 -17.472656 8.40625 -16.796875 C 9.0625 -16.117188 9.390625 -15.09375 9.390625 -13.71875 L 9.390625 -13.078125 C 9.390625 -12.160156 9.242188 -11.40625 8.953125 -10.8125 C 8.671875 -10.21875 8.210938 -9.78125 7.578125 -9.5 C 8.347656 -9.207031 8.890625 -8.734375 9.203125 -8.078125 C 9.515625 -7.421875 9.671875 -6.617188 9.671875 -5.671875 L 9.671875 -4.21875 C 9.671875 -2.84375 9.3125 -1.796875 8.59375 -1.078125 C 7.882812 -0.359375 6.828125 0 5.421875 0 L 1.015625 0 L 1.015625 -17.8125 Z M 3.8125 -8.015625 L 3.8125 -2.546875 L 5.421875 -2.546875 C 5.898438 -2.546875 6.257812 -2.671875 6.5 -2.921875 C 6.75 -3.179688 6.875 -3.640625 6.875 -4.296875 L 6.875 -5.859375 C 6.875 -6.679688 6.734375 -7.242188 6.453125 -7.546875 C 6.171875 -7.859375 5.707031 -8.015625 5.0625 -8.015625 Z M 3.8125 -15.265625 L 3.8125 -10.5625 L 4.90625 -10.5625 C 5.4375 -10.5625 5.847656 -10.695312 6.140625 -10.96875 C 6.441406 -11.238281 6.59375 -11.734375 6.59375 -12.453125 L 6.59375 -13.4375 C 6.59375 -14.082031 6.476562 -14.546875 6.25 -14.828125 C 6.019531 -15.117188 5.660156 -15.265625 5.171875 -15.265625 Z M 3.8125 -15.265625 "/></g></g></g><g fill="#fff3ea" fill-opacity="1"><g transform="translate(145.585672, 323.717324)"><g><path d="M 1.015625 -17.8125 L 3.8125 -17.8125 L 3.8125 0 L 1.015625 0 Z M 1.015625 -17.8125 "/></g></g></g><g fill="#fff3ea" fill-opacity="1"><g transform="translate(151.440051, 323.717324)"><g><path d="M 4.6875 -7.09375 L 3.8125 -5.46875 L 3.8125 0 L 1.015625 0 L 1.015625 -17.8125 L 3.8125 -17.8125 L 3.8125 -10.046875 L 7.484375 -17.8125 L 10.28125 -17.8125 L 6.390625 -9.875 L 10.28125 0 L 7.40625 0 Z M 4.6875 -7.09375 "/></g></g></g><g fill="#fff3ea" fill-opacity="1"><g transform="translate(162.995923, 323.717324)"><g><path d="M 3.8125 -10.3125 L 7.65625 -10.3125 L 7.65625 -7.765625 L 3.8125 -7.765625 L 3.8125 -2.546875 L 8.65625 -2.546875 L 8.65625 0 L 1.015625 0 L 1.015625 -17.8125 L 8.65625 -17.8125 L 8.65625 -15.265625 L 3.8125 -15.265625 Z M 3.8125 -10.3125 "/></g></g></g><g fill="#fff3ea" fill-opacity="1"><g transform="translate(173.380955, 323.717324)"><g><path d="M 6.875 0 C 6.84375 -0.113281 6.804688 -0.222656 6.765625 -0.328125 C 6.734375 -0.429688 6.703125 -0.554688 6.671875 -0.703125 C 6.648438 -0.859375 6.632812 -1.054688 6.625 -1.296875 C 6.625 -1.535156 6.625 -1.832031 6.625 -2.1875 L 6.625 -4.984375 C 6.625 -5.816406 6.476562 -6.398438 6.1875 -6.734375 C 5.894531 -7.078125 5.425781 -7.25 4.78125 -7.25 L 3.8125 -7.25 L 3.8125 0 L 1.015625 0 L 1.015625 -17.8125 L 5.25 -17.8125 C 6.707031 -17.8125 7.757812 -17.472656 8.40625 -16.796875 C 9.0625 -16.117188 9.390625 -15.09375 9.390625 -13.71875 L 9.390625 -12.3125 C 9.390625 -10.488281 8.78125 -9.285156 7.5625 -8.703125 C 8.269531 -8.410156 8.753906 -7.9375 9.015625 -7.28125 C 9.285156 -6.632812 9.421875 -5.84375 9.421875 -4.90625 L 9.421875 -2.15625 C 9.421875 -1.71875 9.4375 -1.332031 9.46875 -1 C 9.5 -0.675781 9.582031 -0.34375 9.71875 0 Z M 3.8125 -15.265625 L 3.8125 -9.796875 L 4.90625 -9.796875 C 5.4375 -9.796875 5.847656 -9.929688 6.140625 -10.203125 C 6.441406 -10.472656 6.59375 -10.96875 6.59375 -11.6875 L 6.59375 -13.4375 C 6.59375 -14.082031 6.476562 -14.546875 6.25 -14.828125 C 6.019531 -15.117188 5.660156 -15.265625 5.171875 -15.265625 Z M 3.8125 -15.265625 "/></g></g></g><g fill="#fff3ea" fill-opacity="1"><g transform="translate(184.631389, 323.717324)"><g><path d="M 0.65625 -13.546875 C 0.65625 -14.984375 1 -16.085938 1.6875 -16.859375 C 2.375 -17.628906 3.40625 -18.015625 4.78125 -18.015625 C 6.15625 -18.015625 7.1875 -17.628906 7.875 -16.859375 C 8.5625 -16.085938 8.90625 -14.984375 8.90625 -13.546875 L 8.90625 -12.984375 L 6.265625 -12.984375 L 6.265625 -13.71875 C 6.265625 -14.363281 6.140625 -14.816406 5.890625 -15.078125 C 5.640625 -15.335938 5.296875 -15.46875 4.859375 -15.46875 C 4.421875 -15.46875 4.078125 -15.335938 3.828125 -15.078125 C 3.585938 -14.816406 3.46875 -14.363281 3.46875 -13.71875 C 3.46875 -13.101562 3.601562 -12.5625 3.875 -12.09375 C 4.144531 -11.632812 4.484375 -11.195312 4.890625 -10.78125 C 5.296875 -10.363281 5.726562 -9.945312 6.1875 -9.53125 C 6.65625 -9.113281 7.09375 -8.660156 7.5 -8.171875 C 7.914062 -7.679688 8.257812 -7.117188 8.53125 -6.484375 C 8.800781 -5.859375 8.9375 -5.125 8.9375 -4.28125 C 8.9375 -2.832031 8.582031 -1.722656 7.875 -0.953125 C 7.175781 -0.179688 6.140625 0.203125 4.765625 0.203125 C 3.390625 0.203125 2.347656 -0.179688 1.640625 -0.953125 C 0.929688 -1.722656 0.578125 -2.832031 0.578125 -4.28125 L 0.578125 -5.375 L 3.234375 -5.375 L 3.234375 -4.09375 C 3.234375 -3.445312 3.363281 -2.992188 3.625 -2.734375 C 3.882812 -2.484375 4.238281 -2.359375 4.6875 -2.359375 C 5.125 -2.359375 5.472656 -2.484375 5.734375 -2.734375 C 6.003906 -2.992188 6.140625 -3.445312 6.140625 -4.09375 C 6.140625 -4.707031 6 -5.25 5.71875 -5.71875 C 5.445312 -6.1875 5.109375 -6.625 4.703125 -7.03125 C 4.296875 -7.445312 3.859375 -7.863281 3.390625 -8.28125 C 2.929688 -8.695312 2.492188 -9.148438 2.078125 -9.640625 C 1.671875 -10.140625 1.332031 -10.703125 1.0625 -11.328125 C 0.789062 -11.953125 0.65625 -12.691406 0.65625 -13.546875 Z M 0.65625 -13.546875 "/></g></g></g><g fill="#fff3ea" fill-opacity="1"><g transform="translate(195.169142, 323.717324)"><g/></g></g><g fill="#fff3ea" fill-opacity="1"><g transform="translate(200.132662, 323.717324)"><g><path d="M 9.140625 -6.640625 L 9.140625 -4.28125 C 9.140625 -2.832031 8.785156 -1.722656 8.078125 -0.953125 C 7.378906 -0.179688 6.34375 0.203125 4.96875 0.203125 C 3.59375 0.203125 2.550781 -0.179688 1.84375 -0.953125 C 1.132812 -1.722656 0.78125 -2.832031 0.78125 -4.28125 L 0.78125 -13.546875 C 0.78125 -14.984375 1.132812 -16.085938 1.84375 -16.859375 C 2.550781 -17.628906 3.59375 -18.015625 4.96875 -18.015625 C 6.34375 -18.015625 7.378906 -17.628906 8.078125 -16.859375 C 8.785156 -16.085938 9.140625 -14.984375 9.140625 -13.546875 L 9.140625 -11.8125 L 6.484375 -11.8125 L 6.484375 -13.71875 C 6.484375 -14.363281 6.351562 -14.816406 6.09375 -15.078125 C 5.832031 -15.335938 5.484375 -15.46875 5.046875 -15.46875 C 4.597656 -15.46875 4.242188 -15.335938 3.984375 -15.078125 C 3.722656 -14.816406 3.59375 -14.363281 3.59375 -13.71875 L 3.59375 -4.09375 C 3.59375 -3.445312 3.722656 -2.992188 3.984375 -2.734375 C 4.242188 -2.484375 4.597656 -2.359375 5.046875 -2.359375 C 5.484375 -2.359375 5.832031 -2.484375 6.09375 -2.734375 C 6.351562 -2.992188 6.484375 -3.445312 6.484375 -4.09375 L 6.484375 -6.640625 Z M 9.140625 -6.640625 "/></g></g></g><g fill="#fff3ea" fill-opacity="1"><g transform="translate(210.975847, 323.717324)"><g><path d="M 3.59375 -4.09375 C 3.59375 -3.445312 3.722656 -2.992188 3.984375 -2.734375 C 4.242188 -2.472656 4.597656 -2.34375 5.046875 -2.34375 C 5.484375 -2.34375 5.832031 -2.472656 6.09375 -2.734375 C 6.351562 -2.992188 6.484375 -3.445312 6.484375 -4.09375 L 6.484375 -13.71875 C 6.484375 -14.363281 6.351562 -14.816406 6.09375 -15.078125 C 5.832031 -15.335938 5.484375 -15.46875 5.046875 -15.46875 C 4.597656 -15.46875 4.242188 -15.335938 3.984375 -15.078125 C 3.722656 -14.816406 3.59375 -14.363281 3.59375 -13.71875 Z M 0.78125 -13.546875 C 0.78125 -14.984375 1.144531 -16.085938 1.875 -16.859375 C 2.613281 -17.628906 3.671875 -18.015625 5.046875 -18.015625 C 6.410156 -18.015625 7.457031 -17.628906 8.1875 -16.859375 C 8.925781 -16.085938 9.296875 -14.984375 9.296875 -13.546875 L 9.296875 -4.28125 C 9.296875 -2.832031 8.925781 -1.722656 8.1875 -0.953125 C 7.457031 -0.179688 6.410156 0.203125 5.046875 0.203125 C 3.671875 0.203125 2.613281 -0.179688 1.875 -0.953125 C 1.144531 -1.722656 0.78125 -2.832031 0.78125 -4.28125 Z M 0.78125 -13.546875 "/></g></g></g><g fill="#fff3ea" fill-opacity="1"><g transform="translate(222.073571, 323.717324)"><g><path d="M 6.953125 -5.171875 L 8.859375 -17.8125 L 12.75 -17.8125 L 12.75 0 L 10.109375 0 L 10.109375 -12.78125 L 8.171875 0 L 5.515625 0 L 3.4375 -12.59375 L 3.4375 0 L 1 0 L 1 -17.8125 L 4.890625 -17.8125 Z M 6.953125 -5.171875 "/></g></g></g><g fill="#fff3ea" fill-opacity="1"><g transform="translate(236.861992, 323.717324)"><g><path d="M 6.953125 -5.171875 L 8.859375 -17.8125 L 12.75 -17.8125 L 12.75 0 L 10.109375 0 L 10.109375 -12.78125 L 8.171875 0 L 5.515625 0 L 3.4375 -12.59375 L 3.4375 0 L 1 0 L 1 -17.8125 L 4.890625 -17.8125 Z M 6.953125 -5.171875 "/></g></g></g><g fill="#fff3ea" fill-opacity="1"><g transform="translate(251.650413, 323.717324)"><g><path d="M 3.6875 -17.8125 L 3.6875 -4.078125 C 3.6875 -3.429688 3.816406 -2.976562 4.078125 -2.71875 C 4.347656 -2.46875 4.703125 -2.34375 5.140625 -2.34375 C 5.578125 -2.34375 5.925781 -2.46875 6.1875 -2.71875 C 6.457031 -2.976562 6.59375 -3.429688 6.59375 -4.078125 L 6.59375 -17.8125 L 9.234375 -17.8125 L 9.234375 -4.25 C 9.234375 -2.8125 8.878906 -1.703125 8.171875 -0.921875 C 7.472656 -0.148438 6.4375 0.234375 5.0625 0.234375 C 3.6875 0.234375 2.644531 -0.148438 1.9375 -0.921875 C 1.238281 -1.703125 0.890625 -2.8125 0.890625 -4.25 L 0.890625 -17.8125 Z M 3.6875 -17.8125 "/></g></g></g><g fill="#fff3ea" fill-opacity="1"><g transform="translate(262.79904, 323.717324)"><g><path d="M 3.515625 -12.90625 L 3.515625 0 L 1 0 L 1 -17.8125 L 4.5 -17.8125 L 7.375 -7.15625 L 7.375 -17.8125 L 9.875 -17.8125 L 9.875 0 L 7 0 Z M 3.515625 -12.90625 "/></g></g></g><g fill="#fff3ea" fill-opacity="1"><g transform="translate(274.685789, 323.717324)"><g><path d="M 1.015625 -17.8125 L 3.8125 -17.8125 L 3.8125 0 L 1.015625 0 Z M 1.015625 -17.8125 "/></g></g></g><g fill="#fff3ea" fill-opacity="1"><g transform="translate(280.540174, 323.717324)"><g><path d="M 0.203125 -17.8125 L 8.859375 -17.8125 L 8.859375 -15.265625 L 5.9375 -15.265625 L 5.9375 0 L 3.125 0 L 3.125 -15.265625 L 0.203125 -15.265625 Z M 0.203125 -17.8125 "/></g></g></g><g fill="#fff3ea" fill-opacity="1"><g transform="translate(290.619763, 323.717324)"><g><path d="M 3.640625 -5.90625 L 0.109375 -17.8125 L 3.03125 -17.8125 L 5.171875 -9.703125 L 7.3125 -17.8125 L 9.984375 -17.8125 L 6.4375 -5.90625 L 6.4375 0 L 3.640625 0 Z M 3.640625 -5.90625 "/></g></g></g><g clip-path="url(#9f894043d5)"><g clip-path="url(#41a562cd47)"><path fill="#fff3ea" d="M 48.269531 309.621094 L 61.996094 309.621094 L 61.996094 323.347656 L 48.269531 323.347656 Z M 48.269531 309.621094 " fill-opacity="1" fill-rule="nonzero"/></g></g><g clip-path="url(#5ec3837aac)"><g clip-path="url(#d9d2971f3b)"><path fill="#fff3ea" d="M 313.003906 309.621094 L 326.730469 309.621094 L 326.730469 323.347656 L 313.003906 323.347656 Z M 313.003906 309.621094 " fill-opacity="1" fill-rule="nonzero"/></g></g><g fill="#000000" fill-opacity="1"><g transform="translate(91.247299, 289.656139)"><g><path d="M 22.097656 -18.53125 L 20.058594 -19.703125 L 20.058594 -26.476562 C 20.058594 -29.175781 19.398438 -32.074219 17.261719 -34.0625 C 15.121094 -36.097656 12.574219 -36.660156 8.554688 -36.046875 C 7.890625 -35.945312 7.332031 -35.691406 6.722656 -35.234375 C 3.769531 -33.09375 2.34375 -30.546875 2.445312 -27.542969 C 2.445312 -26.121094 2.496094 -23.421875 2.445312 -19.703125 L 0.40625 -18.53125 C 0.101562 -18.328125 0 -18.125 0 -17.769531 C 0 -17.464844 0.101562 -17.261719 0.40625 -17.054688 L 2.445312 -15.886719 L 2.445312 -8.453125 C 2.445312 -6.824219 2.699219 -5.5 3.308594 -4.378906 C 6.566406 1.730469 15.019531 2.136719 19.042969 -4.328125 C 19.296875 -4.785156 19.5 -5.191406 19.550781 -5.652344 C 19.957031 -7.738281 20.109375 -9.0625 20.109375 -9.621094 L 20.058594 -15.886719 L 22.097656 -17.054688 C 22.402344 -17.261719 22.503906 -17.464844 22.503906 -17.769531 C 22.503906 -18.125 22.402344 -18.378906 22.097656 -18.53125 Z M 13.390625 -7.535156 C 12.472656 -5.5 9.519531 -5.550781 8.707031 -7.636719 C 8.503906 -8.042969 8.453125 -8.808594 8.453125 -9.828125 L 8.453125 -26.425781 C 8.453125 -27.238281 8.453125 -27.75 8.503906 -28.054688 C 8.859375 -30.652344 12.625 -30.957031 13.441406 -28.460938 C 13.59375 -27.953125 13.695312 -27.390625 13.695312 -26.679688 L 13.695312 -9.46875 C 13.695312 -8.65625 13.59375 -7.992188 13.390625 -7.535156 Z M 13.390625 -7.535156 "/></g></g></g><g fill="#000000" fill-opacity="1"><g transform="translate(114.107969, 289.656139)"><g><path d="M 19.703125 -28.257812 C 19.195312 -34.417969 13.949219 -35.742188 10.894531 -35.742188 L 5.039062 -35.742188 C 2.496094 -35.742188 2.445312 -35.691406 2.445312 -33.195312 L 2.445312 -19.652344 L 0.40625 -18.480469 C 0.152344 -18.328125 0 -18.125 0 -17.769531 C 0 -17.464844 0.152344 -17.210938 0.40625 -17.054688 L 2.445312 -15.886719 L 2.445312 -2.445312 C 2.445312 -1.222656 2.34375 -0.101562 3.5625 0 C 5.140625 0.101562 7.636719 0.152344 8.09375 -0.304688 C 8.300781 -0.507812 8.453125 -1.121094 8.453125 -2.035156 L 8.453125 -10.03125 C 8.453125 -11.660156 8.195312 -12.882812 9.929688 -13.085938 C 10.183594 -13.136719 10.945312 -13.1875 12.117188 -13.1875 C 13.035156 -13.238281 13.746094 -13.339844 14.257812 -13.542969 C 17.464844 -14.765625 19.601562 -17.617188 19.753906 -21.027344 L 19.753906 -24.4375 C 19.753906 -26.832031 19.753906 -28.105469 19.703125 -28.257812 Z M 14 -21.945312 C 13.695312 -19.90625 11.863281 -18.632812 9.929688 -18.941406 C 9.011719 -19.09375 8.554688 -19.601562 8.503906 -20.417969 L 8.503906 -24.4375 L 8.453125 -24.4375 C 8.453125 -28.664062 7.890625 -29.835938 10.589844 -29.632812 C 14.359375 -29.328125 14.460938 -25.40625 14 -21.945312 Z M 14 -21.945312 "/></g></g></g><g fill="#000000" fill-opacity="1"><g transform="translate(134.371984, 289.656139)"><g><path d="M 18.429688 -4.9375 C 18.277344 -6.109375 17.261719 -5.957031 15.734375 -6.007812 L 10.742188 -6.007812 C 9.0625 -6.058594 8.605469 -6.566406 8.503906 -8.195312 C 8.453125 -9.777344 8.453125 -11.148438 8.554688 -12.371094 C 8.65625 -14.5625 9.164062 -14.816406 11.097656 -14.816406 C 12.574219 -14.816406 13.746094 -14.816406 14.511719 -14.867188 C 15.222656 -14.917969 15.628906 -15.273438 15.628906 -15.988281 C 15.734375 -17.054688 15.734375 -18.125 15.683594 -19.195312 C 15.628906 -20.417969 15.324219 -20.773438 14.101562 -20.773438 C 13.746094 -20.824219 13.136719 -20.824219 12.320312 -20.824219 C 10.742188 -20.824219 9.621094 -20.773438 9.011719 -21.332031 C 8.757812 -21.636719 8.554688 -22.148438 8.554688 -22.808594 C 8.453125 -24.4375 8.453125 -26.121094 8.503906 -27.851562 C 8.605469 -29.429688 9.0625 -29.9375 10.742188 -29.988281 L 15.785156 -29.988281 C 17.261719 -29.988281 18.328125 -29.886719 18.429688 -31.109375 C 18.53125 -32.28125 18.582031 -34.824219 18.125 -35.285156 C 17.871094 -35.488281 17.210938 -35.640625 16.039062 -35.640625 L 5.039062 -35.640625 C 2.546875 -35.640625 2.496094 -35.539062 2.496094 -32.992188 L 2.496094 -19.703125 L 0.457031 -18.53125 C 0.203125 -18.378906 0.0507812 -18.125 0.0507812 -17.820312 C 0.0507812 -17.464844 0.203125 -17.261719 0.457031 -17.105469 L 2.496094 -15.9375 L 2.496094 -3.359375 C 2.496094 -1.476562 2.445312 -0.816406 2.902344 -0.40625 C 3.359375 0 4.226562 0 4.9375 0 L 15.988281 0 C 17.054688 0 18.277344 0.101562 18.378906 -1.121094 C 18.53125 -2.34375 18.53125 -3.613281 18.429688 -4.9375 Z M 18.429688 -4.9375 "/></g></g></g><g fill="#000000" fill-opacity="1"><g transform="translate(153.566801, 289.656139)"><g><path d="M 23.777344 -18.632812 L 21.792969 -19.804688 L 21.792969 -33.195312 C 21.792969 -34.367188 21.894531 -35.640625 20.824219 -35.691406 C 20.058594 -35.792969 19.246094 -35.792969 18.378906 -35.792969 C 15.886719 -35.792969 15.785156 -35.691406 15.785156 -33.195312 C 15.785156 -33.398438 15.785156 -29.734375 15.734375 -22.148438 C 15.734375 -20.46875 15.785156 -20.316406 15.476562 -19.347656 C 15.375 -18.738281 14.613281 -18.632812 14.359375 -19.246094 C 14.257812 -19.449219 14.152344 -19.703125 14.050781 -20.007812 C 13.542969 -21.84375 11.660156 -28.105469 10.84375 -30.804688 C 10.742188 -31.261719 10.539062 -31.921875 10.285156 -32.738281 C 9.980469 -33.65625 9.777344 -34.316406 9.671875 -34.671875 C 9.46875 -35.386719 9.011719 -35.742188 8.402344 -35.742188 L 3.5625 -35.742188 C 2.394531 -35.691406 2.496094 -34.46875 2.496094 -32.890625 L 2.496094 -19.804688 L 0.457031 -18.632812 C 0.203125 -18.429688 0.0507812 -18.226562 0.0507812 -17.871094 C 0.0507812 -17.566406 0.203125 -17.363281 0.457031 -17.15625 L 2.496094 -15.988281 L 2.496094 -3.105469 C 2.496094 -1.476562 2.292969 -0.203125 3.871094 0 L 5.652344 0 C 8.503906 0 8.554688 0 8.554688 -2.75 L 8.554688 -13.796875 C 8.554688 -14.867188 8.605469 -15.578125 8.757812 -15.988281 C 9.011719 -16.597656 9.671875 -16.75 9.980469 -16.140625 L 10.589844 -14.460938 C 10.488281 -14.714844 11.761719 -10.84375 14.359375 -2.75 L 14.613281 -2.035156 C 14.765625 -1.679688 14.816406 -1.425781 14.867188 -1.222656 C 15.375 0.355469 17.71875 0 18.941406 0 C 21.636719 0 21.792969 -0.101562 21.792969 -2.800781 L 21.792969 -15.988281 L 23.777344 -17.15625 C 24.082031 -17.363281 24.234375 -17.566406 24.234375 -17.871094 C 24.234375 -18.226562 24.082031 -18.429688 23.777344 -18.632812 Z M 23.777344 -18.632812 "/></g></g></g><g fill="#000000" fill-opacity="1"><g transform="translate(178.158567, 289.656139)"><g><path d="M 14.5625 -15.628906 L 3.820312 -15.628906 C 3.257812 -15.628906 2.75 -15.628906 2.292969 -15.683594 C 1.78125 -15.734375 1.425781 -16.039062 1.375 -16.445312 C 1.222656 -17.769531 1.222656 -18.941406 1.375 -20.058594 C 1.476562 -20.417969 1.78125 -20.621094 2.1875 -20.722656 C 2.597656 -20.773438 3.054688 -20.773438 3.5625 -20.773438 L 15.019531 -20.773438 C 16.191406 -20.773438 16.648438 -20.722656 16.953125 -20.46875 C 17.261719 -20.265625 17.3125 -19.855469 17.3125 -18.890625 C 17.3125 -17.921875 17.3125 -17.261719 17.261719 -16.800781 C 17.210938 -15.988281 16.902344 -15.734375 15.9375 -15.628906 Z M 14.5625 -15.628906 "/></g></g></g><g fill="#000000" fill-opacity="1"><g transform="translate(195.367704, 289.656139)"><g><path d="M 20.46875 -2.800781 C 19.09375 -8.195312 18.175781 -11.660156 17.71875 -13.289062 C 17.414062 -14.5625 17.566406 -15.628906 18.277344 -16.496094 C 19.246094 -17.71875 19.753906 -18.941406 19.753906 -20.109375 C 19.804688 -24.796875 19.804688 -27.800781 19.753906 -29.175781 C 19.652344 -32.023438 17.617188 -34.417969 14.867188 -35.082031 C 13.238281 -35.539062 11.761719 -35.742188 10.488281 -35.691406 L 7.789062 -35.691406 C 4.835938 -35.691406 3.359375 -35.792969 2.902344 -35.335938 C 2.648438 -35.082031 2.546875 -34.316406 2.546875 -33.042969 L 2.546875 -19.652344 L 0.507812 -18.480469 C 0.253906 -18.328125 0.101562 -18.074219 0.101562 -17.769531 C 0.101562 -17.414062 0.253906 -17.210938 0.507812 -17.003906 L 2.546875 -15.886719 L 2.546875 -2.953125 C 2.546875 -1.273438 2.34375 -0.0507812 3.714844 0 C 4.9375 0.0507812 6.160156 0.0507812 7.332031 0 C 8.757812 -0.0507812 8.554688 -1.222656 8.554688 -2.75 L 8.554688 -9.929688 C 8.605469 -11.507812 8.503906 -12.882812 9.980469 -13.085938 C 11.457031 -13.289062 11.710938 -11.964844 11.914062 -10.996094 L 12.882812 -6.875 C 13.390625 -4.886719 13.746094 -3.511719 13.898438 -2.75 C 14.207031 -1.324219 14.359375 -0.152344 15.476562 0 C 17.15625 0.101562 18.6875 0.101562 20.058594 -0.0507812 C 20.621094 -0.101562 20.925781 -0.558594 20.824219 -1.070312 C 20.773438 -1.527344 20.671875 -2.136719 20.46875 -2.800781 Z M 14.101562 -26.679688 L 14.101562 -22.097656 C 14.101562 -21.996094 14.050781 -21.792969 14 -21.484375 C 13.59375 -19.601562 11.8125 -18.480469 9.929688 -18.941406 C 9.0625 -19.195312 8.65625 -19.703125 8.65625 -20.570312 C 8.65625 -20.671875 8.605469 -22.097656 8.605469 -24.335938 C 8.605469 -28.5625 8.042969 -29.9375 10.894531 -29.582031 C 11.097656 -29.53125 11.304688 -29.480469 11.660156 -29.429688 C 13.339844 -29.019531 14 -28.308594 14.101562 -26.679688 Z M 14.101562 -26.679688 "/></g></g></g><g fill="#000000" fill-opacity="1"><g transform="translate(216.548193, 289.656139)"><g><path d="M 22.097656 -18.53125 L 20.058594 -19.703125 L 20.058594 -26.476562 C 20.058594 -29.175781 19.398438 -32.074219 17.261719 -34.0625 C 15.121094 -36.097656 12.574219 -36.660156 8.554688 -36.046875 C 7.890625 -35.945312 7.332031 -35.691406 6.722656 -35.234375 C 3.769531 -33.09375 2.34375 -30.546875 2.445312 -27.542969 C 2.445312 -26.121094 2.496094 -23.421875 2.445312 -19.703125 L 0.40625 -18.53125 C 0.101562 -18.328125 0 -18.125 0 -17.769531 C 0 -17.464844 0.101562 -17.261719 0.40625 -17.054688 L 2.445312 -15.886719 L 2.445312 -8.453125 C 2.445312 -6.824219 2.699219 -5.5 3.308594 -4.378906 C 6.566406 1.730469 15.019531 2.136719 19.042969 -4.328125 C 19.296875 -4.785156 19.5 -5.191406 19.550781 -5.652344 C 19.957031 -7.738281 20.109375 -9.0625 20.109375 -9.621094 L 20.058594 -15.886719 L 22.097656 -17.054688 C 22.402344 -17.261719 22.503906 -17.464844 22.503906 -17.769531 C 22.503906 -18.125 22.402344 -18.378906 22.097656 -18.53125 Z M 13.390625 -7.535156 C 12.472656 -5.5 9.519531 -5.550781 8.707031 -7.636719 C 8.503906 -8.042969 8.453125 -8.808594 8.453125 -9.828125 L 8.453125 -26.425781 C 8.453125 -27.238281 8.453125 -27.75 8.503906 -28.054688 C 8.859375 -30.652344 12.625 -30.957031 13.441406 -28.460938 C 13.59375 -27.953125 13.695312 -27.390625 13.695312 -26.679688 L 13.695312 -9.46875 C 13.695312 -8.65625 13.59375 -7.992188 13.390625 -7.535156 Z M 13.390625 -7.535156 "/></g></g></g><g fill="#000000" fill-opacity="1"><g transform="translate(239.408868, 289.656139)"><g><path d="M 20.417969 -3.054688 C 20.367188 -3.460938 19.601562 -7.789062 18.226562 -16.089844 L 19.957031 -17.105469 C 20.214844 -17.261719 20.367188 -17.464844 20.367188 -17.820312 C 20.367188 -18.125 20.214844 -18.378906 19.957031 -18.53125 L 17.566406 -19.90625 C 17.515625 -20.316406 16.75 -24.796875 15.324219 -33.246094 C 15.171875 -34.0625 14.96875 -34.976562 14.613281 -35.335938 C 14.410156 -35.488281 14 -35.589844 13.492188 -35.640625 L 8.859375 -35.640625 C 7.230469 -35.640625 6.824219 -35.335938 6.515625 -33.65625 C 6.058594 -30.855469 5.296875 -26.273438 4.175781 -19.957031 L 1.730469 -18.53125 C 1.425781 -18.378906 1.273438 -18.125 1.273438 -17.820312 C 1.273438 -17.464844 1.425781 -17.261719 1.730469 -17.105469 L 3.511719 -16.039062 C 3.511719 -15.988281 3.460938 -15.835938 3.460938 -15.683594 C 3.15625 -13.898438 2.445312 -9.570312 1.222656 -2.648438 C 1.019531 -1.171875 0.660156 -0.101562 2.085938 -0.0507812 C 3.15625 0 4.480469 0 6.058594 -0.0507812 C 6.773438 -0.0507812 7.179688 -0.40625 7.332031 -1.171875 C 7.738281 -3.511719 7.992188 -4.886719 8.042969 -5.296875 C 8.351562 -7.890625 8.757812 -7.992188 11.40625 -7.992188 C 11.40625 -7.992188 11.558594 -7.992188 11.8125 -7.941406 C 13.59375 -7.890625 13.695312 -5.449219 13.746094 -4.9375 C 13.847656 -4.53125 13.898438 -3.921875 14 -3.15625 C 14.207031 -1.527344 14.257812 -0.765625 14.714844 -0.355469 C 14.917969 -0.152344 15.222656 -0.0507812 15.734375 0 C 16.140625 0 19.753906 0.152344 20.214844 -0.304688 C 20.621094 -0.660156 20.671875 -1.578125 20.417969 -3.054688 Z M 12.421875 -14.257812 C 12.320312 -13.59375 9.46875 -13.542969 9.46875 -14.308594 C 9.46875 -14.460938 9.46875 -14.714844 9.519531 -14.96875 C 9.671875 -17.105469 9.980469 -18.6875 10.335938 -19.652344 C 10.539062 -20.007812 11.097656 -20.214844 11.40625 -19.652344 C 11.558594 -19.347656 11.660156 -19.09375 11.710938 -18.890625 C 11.710938 -18.738281 12.269531 -16.039062 12.371094 -15.121094 C 12.421875 -14.664062 12.421875 -14.359375 12.421875 -14.257812 Z M 12.421875 -14.257812 "/></g></g></g><g fill="#000000" fill-opacity="1"><g transform="translate(259.469222, 289.656139)"><g><path d="M 21.792969 -18.582031 L 19.753906 -19.753906 L 19.753906 -27.390625 C 19.753906 -29.683594 19.144531 -31.363281 16.648438 -33.910156 C 15.375 -35.234375 13.796875 -35.84375 11.964844 -35.84375 C 11.863281 -35.84375 9.46875 -35.84375 4.734375 -35.792969 C 3.769531 -35.792969 2.648438 -35.894531 2.496094 -34.671875 C 2.496094 -34.265625 2.445312 -33.65625 2.445312 -32.890625 L 2.445312 -19.753906 L 0.40625 -18.582031 C 0.152344 -18.429688 0 -18.175781 0 -17.871094 C 0 -17.515625 0.152344 -17.3125 0.40625 -17.15625 L 2.445312 -15.988281 L 2.445312 -3.15625 C 2.445312 -1.324219 2.445312 -0.710938 2.851562 -0.304688 C 3.003906 -0.152344 3.359375 0 3.871094 0 L 4.074219 0 C 13.289062 0 15.222656 0.867188 18.429688 -3.921875 C 19.296875 -5.296875 19.753906 -6.875 19.753906 -8.707031 L 19.753906 -15.988281 L 21.792969 -17.15625 C 22.046875 -17.3125 22.199219 -17.515625 22.199219 -17.871094 C 22.199219 -18.175781 22.046875 -18.429688 21.792969 -18.582031 Z M 13.746094 -25.710938 L 13.746094 -8.808594 C 13.746094 -6.824219 11.355469 -5.5 9.417969 -6.210938 C 8.453125 -6.617188 8.503906 -7.636719 8.503906 -8.859375 L 8.503906 -27.542969 C 8.453125 -29.429688 9.0625 -29.886719 10.996094 -29.734375 C 12.625 -29.632812 13.542969 -28.765625 13.695312 -27.085938 C 13.746094 -26.832031 13.746094 -26.375 13.746094 -25.710938 Z M 13.746094 -25.710938 "/></g></g></g></svg>