<svg xmlns="http://www.w3.org/2000/svg" xmlns:xlink="http://www.w3.org/1999/xlink" width="500" zoomAndPan="magnify" viewBox="0 0 375 374.999991" height="500" preserveAspectRatio="xMidYMid meet" version="1.0"><path fill="#ffffff" d="M 187.5 73.53125 C 177.347656 73.53125 169.117188 81.757812 169.117188 91.910156 C 169.117188 102.0625 177.347656 110.292969 187.5 110.292969 C 197.652344 110.292969 205.882812 102.0625 205.882812 91.910156 C 205.882812 81.757812 197.652344 73.53125 187.5 73.53125 Z M 132.351562 91.910156 C 132.351562 61.453125 157.042969 36.765625 187.5 36.765625 C 217.957031 36.765625 242.648438 61.453125 242.648438 91.910156 C 242.648438 122.367188 217.957031 147.058594 187.5 147.058594 C 157.042969 147.058594 132.351562 122.367188 132.351562 91.910156 Z M 132.351562 91.910156 " fill-opacity="1" fill-rule="evenodd"/><path fill="#ffffff" d="M 76.035156 211.382812 C 98.3125 249.894531 139.902344 275.734375 187.507812 275.734375 C 235.113281 275.734375 276.703125 249.894531 298.980469 211.382812 L 330.804688 229.792969 C 302.226562 279.195312 248.769531 312.5 187.507812 312.5 C 126.25 312.5 72.789062 279.195312 44.210938 229.792969 Z M 76.035156 211.382812 " fill-opacity="1" fill-rule="evenodd"/><path fill="#ffffff" d="M 169.117188 0 L 205.882812 0 L 205.882812 55.148438 L 169.117188 55.148438 Z M 169.117188 0 " fill-opacity="1" fill-rule="evenodd"/><path fill="#ffffff" d="M 78.445312 361.046875 L 170.355469 122.078125 L 204.671875 135.273438 L 112.757812 374.246094 Z M 78.445312 361.046875 " fill-opacity="1" fill-rule="evenodd"/><path fill="#ffffff" d="M 296.574219 361.046875 L 204.660156 122.078125 L 170.347656 135.273438 L 262.257812 374.246094 Z M 296.574219 361.046875 " fill-opacity="1" fill-rule="evenodd"/></svg>