<svg xmlns="http://www.w3.org/2000/svg" xmlns:xlink="http://www.w3.org/1999/xlink" width="500" zoomAndPan="magnify" viewBox="0 0 375 374.999991" height="500" preserveAspectRatio="xMidYMid meet" version="1.0"><defs><clipPath id="6e636de915"><path d="M 1 75.539062 L 375 75.539062 L 375 299.789062 L 1 299.789062 Z M 1 75.539062 " clip-rule="nonzero"/></clipPath></defs><g clip-path="url(#6e636de915)"><path fill="#ffffff" d="M 319.289062 288.335938 C 294.714844 288.335938 274.730469 268.34375 274.730469 243.777344 C 274.730469 229.746094 281.261719 217.226562 291.433594 209.054688 L 304.179688 231.730469 C 301.53125 235.050781 299.882812 239.199219 299.882812 243.777344 C 299.882812 254.492188 308.566406 263.171875 319.289062 263.171875 C 330 263.171875 338.691406 254.492188 338.691406 243.777344 C 338.691406 233.203125 330.21875 224.640625 319.703125 224.417969 L 309.492188 200.339844 C 312.648438 199.628906 315.914062 199.222656 319.289062 199.222656 C 343.855469 199.222656 363.851562 219.203125 363.851562 243.777344 C 363.851562 268.34375 343.855469 288.335938 319.289062 288.335938 Z M 278.441406 181.511719 C 278.96875 180.945312 279.496094 180.363281 280.035156 179.824219 C 280.285156 179.566406 280.539062 179.335938 280.789062 179.085938 C 279.542969 180.320312 278.304688 181.617188 277.078125 182.984375 C 277.527344 182.480469 277.984375 182 278.441406 181.511719 Z M 160.367188 254.832031 C 156.550781 254.832031 151.46875 251.757812 149.703125 248.382812 L 140.351562 230.480469 C 142.167969 228.511719 144.011719 226.535156 145.949219 224.597656 C 149.394531 221.417969 152.765625 218.027344 156.460938 214.914062 C 163.839844 208.679688 171.707031 202.640625 180.132812 197.34375 C 182.234375 196.011719 184.335938 194.683594 186.453125 193.351562 L 192.976562 189.6875 C 197.277344 187.171875 201.804688 185.066406 206.246094 182.871094 C 210.707031 180.691406 215.300781 178.859375 219.789062 176.914062 C 224.382812 175.222656 228.863281 173.328125 233.449219 171.878906 C 242.519531 168.734375 251.570312 166.234375 260.359375 164.105469 C 269.144531 162.027344 277.667969 160.351562 285.78125 159.117188 C 290.140625 158.402344 294.363281 157.855469 298.453125 157.382812 C 296.011719 159.179688 293.648438 160.800781 291.699219 162.136719 L 289.757812 163.46875 C 284.441406 167.148438 278.867188 171.769531 273.574219 177.433594 C 271.023438 178.488281 268.480469 179.519531 265.898438 180.65625 C 258.113281 184.15625 250.222656 188.007812 242.550781 192.386719 C 238.644531 194.46875 234.941406 196.941406 231.125 199.195312 C 227.457031 201.691406 223.707031 204.058594 220.164062 206.6875 C 216.644531 209.347656 213.058594 211.882812 209.777344 214.746094 L 204.792969 218.898438 L 200.105469 223.273438 C 193.863281 229.039062 188.359375 235.238281 183.359375 241.347656 C 180.867188 244.402344 178.707031 247.632812 176.441406 250.636719 C 175.5 252.015625 174.621094 253.40625 173.753906 254.792969 Z M 79.347656 131.878906 L 81.867188 141.28125 C 82.503906 143.667969 84.984375 145.914062 87.421875 146.320312 L 158.464844 158.21875 C 160.890625 158.621094 163.484375 157.054688 164.25 154.722656 L 168.707031 141.125 C 171.25 140.773438 173.707031 140.03125 176.035156 139.011719 L 170.234375 156.6875 C 168.714844 161.332031 164.195312 164.585938 159.242188 164.585938 C 158.636719 164.585938 158.027344 164.535156 157.425781 164.429688 L 86.382812 152.53125 C 81.515625 151.722656 77.054688 147.675781 75.78125 142.910156 L 70.617188 123.625 C 70.636719 123.648438 70.707031 123.683594 70.722656 123.707031 C 72.238281 127.082031 75.527344 129.859375 79.347656 131.878906 Z M 280.121094 128.019531 C 280.011719 128.0625 279.886719 128.09375 279.765625 128.128906 C 279.320312 128.269531 278.859375 128.375 278.390625 128.402344 C 278.296875 128.410156 278.203125 128.394531 278.117188 128.394531 C 278.796875 128.386719 279.480469 128.25 280.121094 128.019531 Z M 280.386719 127.933594 C 280.359375 127.945312 280.328125 127.949219 280.304688 127.964844 C 280.96875 127.691406 281.582031 127.304688 282.070312 126.765625 C 281.609375 127.277344 281.015625 127.648438 280.386719 127.933594 Z M 288.746094 172.070312 C 287.707031 172.890625 286.652344 173.746094 285.601562 174.648438 C 286.660156 173.746094 287.707031 172.886719 288.746094 172.070312 Z M 281.710938 178.195312 C 282.265625 177.65625 282.820312 177.105469 283.375 176.597656 C 283.84375 176.171875 284.308594 175.78125 284.777344 175.371094 C 283.652344 176.363281 282.519531 177.40625 281.390625 178.5 C 281.496094 178.398438 281.609375 178.292969 281.710938 178.195312 Z M 59.421875 286.109375 C 58.660156 286.144531 57.902344 286.171875 57.152344 286.171875 C 33.402344 286.171875 13.878906 267.578125 12.6875 243.832031 C 11.460938 219.296875 30.417969 198.335938 54.960938 197.105469 C 55.722656 197.0625 56.488281 197.042969 57.238281 197.042969 C 72.292969 197.042969 85.632812 204.535156 93.695312 216.054688 L 70.101562 227.222656 C 66.667969 224.140625 62.171875 222.207031 57.1875 222.207031 C 46.476562 222.207031 37.789062 230.894531 37.789062 241.605469 C 37.789062 252.320312 46.476562 261.003906 57.1875 261.003906 C 65.917969 261.003906 73.203125 255.210938 75.644531 247.292969 L 101.695312 243.613281 C 100.6875 266.285156 82.535156 284.949219 59.421875 286.109375 Z M 319.289062 188.070312 C 314.371094 188.070312 309.628906 188.773438 305.085938 189.96875 L 295.4375 167.21875 C 294.707031 167.710938 294.015625 168.199219 293.339844 168.652344 C 292.097656 169.511719 290.832031 170.445312 289.546875 171.429688 C 289.65625 171.347656 289.769531 171.253906 289.878906 171.167969 C 289.878906 171.167969 289.875 171.171875 289.875 171.175781 C 291.046875 170.285156 292.203125 169.4375 293.339844 168.652344 C 294.535156 167.824219 295.847656 166.9375 297.210938 165.996094 C 302.046875 162.65625 307.644531 158.628906 312.105469 154.167969 C 312.136719 154.132812 312.167969 154.105469 312.199219 154.074219 C 312.832031 153.4375 313.441406 152.789062 314.019531 152.140625 C 314.097656 152.050781 314.179688 151.964844 314.253906 151.875 C 314.777344 151.277344 315.261719 150.671875 315.730469 150.058594 C 315.769531 150.015625 315.804688 149.96875 315.839844 149.925781 C 315.839844 149.921875 315.839844 149.921875 315.839844 149.921875 C 315.914062 149.824219 315.988281 149.730469 316.058594 149.640625 C 316.476562 149.074219 316.851562 148.503906 317.207031 147.929688 C 317.332031 147.746094 317.460938 147.558594 317.570312 147.367188 C 317.890625 146.828125 318.167969 146.277344 318.429688 145.726562 C 318.535156 145.511719 318.660156 145.292969 318.75 145.078125 C 318.863281 144.828125 318.949219 144.574219 319.046875 144.324219 C 319.121094 144.132812 319.167969 143.945312 319.238281 143.757812 C 319.273438 143.660156 319.304688 143.5625 319.335938 143.460938 C 319.417969 143.226562 319.515625 142.992188 319.574219 142.757812 C 319.679688 142.371094 319.730469 141.984375 319.796875 141.59375 C 319.84375 141.34375 319.902344 141.097656 319.925781 140.847656 C 319.945312 140.703125 319.988281 140.5625 320 140.417969 C 320.070312 139.636719 320.074219 138.851562 319.988281 138.0625 C 319.785156 136.105469 319.34375 134.109375 318.804688 132.101562 C 318.683594 131.664062 318.5625 131.226562 318.425781 130.789062 C 311.820312 108.710938 287.503906 84.734375 278.5625 76.480469 C 278.148438 76.105469 277.800781 75.882812 277.480469 75.734375 C 277.382812 75.6875 277.300781 75.675781 277.214844 75.652344 C 277.105469 75.621094 276.976562 75.546875 276.882812 75.546875 C 276.828125 75.546875 276.820312 75.632812 276.773438 75.640625 C 276.582031 75.679688 276.449219 75.8125 276.347656 76.011719 C 276.304688 76.101562 276.238281 76.152344 276.21875 76.273438 C 276.140625 76.65625 276.144531 77.152344 276.3125 77.835938 L 285.910156 117.039062 C 286.488281 119.425781 285.625 122.839844 283.972656 124.667969 L 283.773438 124.886719 L 271.628906 102.40625 C 271.234375 101.675781 270.597656 101.128906 269.820312 100.847656 L 267.882812 100.152344 C 267.933594 100.363281 267.917969 100.585938 267.941406 100.804688 C 267.699219 98.777344 266.390625 96.945312 264.347656 96.210938 L 243.542969 88.761719 C 240.648438 87.730469 237.457031 89.230469 236.421875 92.125 C 235.382812 95.019531 236.894531 98.210938 239.789062 99.246094 L 260.597656 106.695312 C 261.207031 106.917969 261.847656 107.023438 262.46875 107.023438 C 263.425781 107.023438 264.347656 106.722656 265.167969 106.261719 C 265.164062 106.269531 265.15625 106.273438 265.152344 106.28125 L 266.355469 106.710938 L 278.070312 128.394531 C 277.828125 128.394531 277.589844 128.410156 277.355469 128.378906 C 277.191406 128.355469 277.019531 128.347656 276.859375 128.316406 C 276.3125 128.1875 275.777344 128 275.304688 127.695312 C 274.46875 127.160156 273.589844 126.582031 272.667969 125.980469 C 272.296875 125.738281 271.921875 125.503906 271.539062 125.253906 C 270.753906 124.753906 269.953125 124.246094 269.105469 123.722656 C 268.667969 123.453125 268.226562 123.1875 267.769531 122.917969 C 266.957031 122.433594 266.113281 121.949219 265.230469 121.46875 C 264.746094 121.199219 264.273438 120.9375 263.765625 120.671875 C 262.757812 120.144531 261.699219 119.636719 260.605469 119.136719 C 260.183594 118.945312 259.792969 118.742188 259.359375 118.550781 C 257.816406 117.886719 256.199219 117.253906 254.488281 116.671875 C 254.167969 116.566406 253.816406 116.484375 253.496094 116.382812 C 252.089844 115.933594 250.625 115.519531 249.09375 115.160156 C 248.453125 115.007812 247.78125 114.890625 247.117188 114.761719 C 245.800781 114.496094 244.445312 114.269531 243.039062 114.082031 C 242.269531 113.980469 241.496094 113.898438 240.699219 113.824219 C 239.242188 113.6875 237.726562 113.617188 236.171875 113.578125 C 235.613281 113.5625 235.113281 113.488281 234.542969 113.488281 C 234.210938 113.488281 233.839844 113.519531 233.503906 113.523438 C 232.863281 113.535156 232.203125 113.566406 231.542969 113.597656 C 230.15625 113.652344 228.722656 113.753906 227.25 113.898438 C 226.558594 113.964844 225.859375 114.03125 225.144531 114.121094 C 223.398438 114.335938 221.597656 114.625 219.75 114.96875 C 219.296875 115.054688 218.871094 115.109375 218.410156 115.203125 C 216.097656 115.667969 213.699219 116.253906 211.210938 116.941406 C 210.570312 117.121094 209.894531 117.351562 209.242188 117.542969 C 207.347656 118.105469 205.410156 118.730469 203.414062 119.429688 C 202.53125 119.738281 201.628906 120.074219 200.722656 120.414062 C 198.78125 121.140625 196.789062 121.949219 194.753906 122.8125 C 193.878906 123.1875 193.019531 123.539062 192.121094 123.9375 C 189.195312 125.242188 186.214844 126.648438 183.097656 128.242188 C 179.429688 130.125 175.144531 132.902344 170.886719 134.285156 C 169.921875 134.597656 168.957031 134.828125 167.996094 134.972656 C 167.816406 135 167.636719 135 167.460938 135.019531 C 166.53125 135.121094 165.609375 135.160156 164.710938 135.035156 L 90.324219 128.976562 C 84.234375 128.117188 78.03125 124.605469 76.46875 121.125 C 76.402344 120.972656 76.277344 120.835938 76.199219 120.6875 C 76.191406 120.679688 76.1875 120.671875 76.179688 120.667969 C 75.480469 119.449219 74.238281 118.339844 72.613281 117.414062 C 72.582031 117.398438 72.550781 117.382812 72.519531 117.367188 C 72.015625 117.082031 71.480469 116.808594 70.914062 116.566406 C 70.796875 116.515625 70.667969 116.476562 70.546875 116.425781 C 70.046875 116.226562 69.546875 116.03125 69.019531 115.863281 C 68.773438 115.789062 68.519531 115.734375 68.273438 115.664062 C 67.835938 115.546875 67.414062 115.421875 66.964844 115.328125 C 66.582031 115.25 66.195312 115.203125 65.808594 115.140625 C 65.46875 115.089844 65.132812 115.023438 64.785156 114.984375 C 64.265625 114.929688 63.742188 114.914062 63.21875 114.898438 C 63.003906 114.890625 62.785156 114.859375 62.570312 114.859375 C 62.554688 114.859375 62.527344 114.859375 62.507812 114.859375 L 25.765625 114.980469 C 19.613281 114.996094 16.453125 118.152344 18.703125 122.023438 C 20.960938 125.886719 26.898438 131.835938 31.976562 135.316406 L 103.085938 184.066406 C 108.15625 187.539062 114.585938 194.78125 117.433594 200.234375 L 119.359375 203.914062 L 103.835938 211.257812 C 93.851562 195.941406 76.625 185.90625 57.238281 185.902344 C 56.300781 185.902344 55.347656 185.925781 54.40625 185.972656 C 23.679688 187.519531 0.0234375 213.667969 1.5625 244.394531 C 3.058594 274.171875 27.667969 297.304688 57.152344 297.304688 C 58.078125 297.304688 59.035156 297.28125 59.980469 297.238281 C 89.625 295.75 112.609375 271.347656 112.824219 242.042969 L 137.460938 238.5625 L 144.117188 251.300781 C 146.964844 256.738281 154.226562 261.132812 160.367188 261.132812 C 160.378906 261.132812 160.394531 261.132812 160.414062 261.132812 L 169.867188 261.101562 L 243.734375 260.878906 C 249.882812 260.859375 254.304688 255.878906 254.175781 249.730469 C 254.113281 247.023438 254.148438 244.398438 254.257812 241.835938 C 254.296875 240.992188 254.382812 240.203125 254.433594 239.375 C 254.542969 237.6875 254.648438 236 254.828125 234.375 C 254.929688 233.421875 255.082031 232.515625 255.210938 231.585938 C 255.398438 230.15625 255.589844 228.726562 255.835938 227.347656 C 256 226.382812 256.210938 225.464844 256.40625 224.527344 C 256.671875 223.246094 256.9375 221.964844 257.246094 220.726562 C 257.476562 219.796875 257.742188 218.894531 257.996094 217.988281 C 258.328125 216.8125 258.660156 215.644531 259.019531 214.515625 C 259.3125 213.621094 259.625 212.753906 259.933594 211.886719 C 260.320312 210.808594 260.710938 209.742188 261.132812 208.699219 C 261.472656 207.851562 261.828125 207.019531 262.183594 206.195312 C 262.625 205.203125 263.066406 204.222656 263.523438 203.265625 C 263.90625 202.46875 264.300781 201.679688 264.707031 200.90625 C 265.183594 199.992188 265.667969 199.09375 266.167969 198.210938 C 266.589844 197.457031 267.019531 196.710938 267.464844 195.980469 C 267.96875 195.144531 268.492188 194.324219 269.011719 193.519531 C 269.476562 192.816406 269.9375 192.109375 270.410156 191.429688 C 270.945312 190.65625 271.492188 189.914062 272.042969 189.171875 C 272.527344 188.515625 273.015625 187.855469 273.511719 187.226562 C 274.0625 186.519531 274.632812 185.84375 275.199219 185.171875 C 275.707031 184.5625 276.21875 183.945312 276.734375 183.359375 C 276.785156 183.300781 276.839844 183.25 276.890625 183.1875 L 285.921875 199.246094 C 272.378906 209.410156 263.589844 225.546875 263.589844 243.777344 C 263.589844 274.539062 288.519531 299.472656 319.289062 299.472656 C 350.042969 299.472656 374.980469 274.539062 374.980469 243.777344 C 374.980469 213.011719 350.042969 188.070312 319.289062 188.070312 " fill-opacity="1" fill-rule="nonzero"/></g></svg>