<svg xmlns="http://www.w3.org/2000/svg" xmlns:xlink="http://www.w3.org/1999/xlink" width="500" zoomAndPan="magnify" viewBox="0 0 375 374.999991" height="500" preserveAspectRatio="xMidYMid meet" version="1.0"><defs><clipPath id="fa55e5b992"><path d="M 0 22 L 350 22 L 350 343 L 0 343 Z M 0 22 " clip-rule="nonzero"/></clipPath><clipPath id="aaa11ebeae"><path d="M 54.921875 40.59375 L 95.902344 78.140625 L 87.996094 103.597656 L 60.234375 110.847656 L 19.257812 73.269531 L 0.726562 90.261719 L 47.808594 152.480469 L 103.332031 142.796875 L 298.199219 333.054688 C 328.046875 360.628906 368.300781 319.285156 340.378906 295.742188 L 132.167969 115.167969 L 144.847656 63.671875 L 74.84375 22.300781 Z M 311.226562 307.25 C 316.539062 302.378906 325.140625 302.378906 330.453125 307.25 C 335.761719 312.121094 335.761719 320.007812 330.453125 324.878906 C 325.140625 329.722656 316.539062 329.722656 311.226562 324.878906 C 305.914062 320.007812 305.914062 312.121094 311.226562 307.25 Z M 311.226562 307.25 " clip-rule="nonzero"/></clipPath><clipPath id="b741c79d33"><path d="M 8 18 L 372.949219 18 L 372.949219 338 L 8 338 Z M 8 18 " clip-rule="nonzero"/></clipPath><clipPath id="2f6f954600"><path d="M 160.46875 25.519531 L 162.871094 25.980469 C 190.820312 17.457031 253.554688 51.03125 239.578125 80.953125 C 236.039062 85.652344 236.636719 94 240.90625 99.25 L 162.460938 171.210938 C 158.066406 167.183594 148.292969 167.269531 143.804688 171.210938 L 14.070312 285.390625 C 2.246094 295.796875 11.542969 304.640625 16.539062 309.308594 L 39.808594 330.648438 C 44.898438 335.289062 58.339844 341.550781 67.886719 332.273438 L 190.316406 213.949219 C 194.585938 209.832031 194.617188 200.988281 190.316406 196.929688 C 190.316406 196.929688 190.347656 196.871094 190.316406 196.871094 L 269.078125 124.675781 C 277.394531 131.546875 285.25 132.140625 292.699219 130.273438 C 307.085938 126.660156 315.109375 139.570312 323.714844 149.003906 L 319.828125 152.511719 C 314.074219 157.847656 314.609375 166.832031 321.0625 172.75 C 327.511719 178.664062 337.34375 179.15625 343.097656 173.878906 L 368.835938 150.308594 C 374.589844 144.972656 374.054688 135.984375 367.574219 130.097656 C 361.753906 124.734375 353.3125 124.039062 347.429688 127.867188 C 329.789062 109.714844 339.050781 106.992188 315.78125 83.359375 L 272.179688 42.507812 C 240.78125 14.269531 199.992188 14.296875 160.46875 25.519531 Z M 160.46875 25.519531 " clip-rule="nonzero"/></clipPath></defs><path fill="#ffffff" d="M 54.921875 40.59375 L 95.902344 78.140625 L 87.996094 103.597656 L 60.234375 110.847656 L 19.257812 73.269531 L 0.726562 90.261719 L 47.808594 152.480469 L 103.332031 142.796875 L 298.199219 333.054688 C 328.046875 360.628906 368.300781 319.285156 340.378906 295.742188 L 132.167969 115.167969 L 144.847656 63.671875 L 74.84375 22.300781 Z M 311.226562 307.25 C 316.539062 302.378906 325.140625 302.378906 330.453125 307.25 C 335.761719 312.121094 335.761719 320.007812 330.453125 324.878906 C 325.140625 329.722656 316.539062 329.722656 311.226562 324.878906 C 305.914062 320.007812 305.914062 312.121094 311.226562 307.25 Z M 311.226562 307.25 " fill-opacity="1" fill-rule="nonzero"/><path fill="#ffffff" d="M 54.921875 40.59375 L 95.902344 78.140625 L 87.996094 103.597656 L 60.234375 110.847656 L 19.257812 73.269531 L 0.726562 90.261719 L 47.808594 152.480469 L 103.332031 142.796875 L 298.199219 333.054688 C 328.046875 360.628906 368.300781 319.285156 340.378906 295.742188 L 132.167969 115.167969 L 144.847656 63.671875 L 74.84375 22.300781 Z M 311.226562 307.25 C 316.539062 302.378906 325.140625 302.378906 330.453125 307.25 C 335.761719 312.121094 335.761719 320.007812 330.453125 324.878906 C 325.140625 329.722656 316.539062 329.722656 311.226562 324.878906 C 305.914062 320.007812 305.914062 312.121094 311.226562 307.25 Z M 311.226562 307.25 " fill-opacity="1" fill-rule="nonzero"/><path fill="#ffffff" d="M 54.921875 40.59375 L 95.902344 78.140625 L 87.996094 103.597656 L 60.234375 110.847656 L 19.257812 73.269531 L 0.726562 90.261719 L 47.808594 152.480469 L 103.332031 142.796875 L 298.199219 333.054688 C 328.046875 360.628906 368.300781 319.285156 340.378906 295.742188 L 132.167969 115.167969 L 144.847656 63.671875 L 74.84375 22.300781 Z M 311.226562 307.25 C 316.539062 302.378906 325.140625 302.378906 330.453125 307.25 C 335.761719 312.121094 335.761719 320.007812 330.453125 324.878906 C 325.140625 329.722656 316.539062 329.722656 311.226562 324.878906 C 305.914062 320.007812 305.914062 312.121094 311.226562 307.25 Z M 311.226562 307.25 " fill-opacity="1" fill-rule="nonzero"/><g clip-path="url(#fa55e5b992)"><g clip-path="url(#aaa11ebeae)"><path fill="#ffffff" d="M 54.921875 40.59375 L 95.902344 78.140625 L 87.996094 103.597656 L 60.234375 110.847656 L 19.257812 73.269531 L 0.726562 90.261719 L 47.808594 152.480469 L 103.332031 142.796875 L 298.199219 333.054688 C 328.046875 360.628906 368.300781 319.285156 340.378906 295.742188 L 132.167969 115.167969 L 144.847656 63.671875 L 74.84375 22.300781 Z M 311.226562 307.25 C 316.539062 302.378906 325.140625 302.378906 330.453125 307.25 C 335.761719 312.121094 335.761719 320.007812 330.453125 324.878906 C 325.140625 329.722656 316.539062 329.722656 311.226562 324.878906 C 305.914062 320.007812 305.914062 312.121094 311.226562 307.25 Z M 311.226562 307.25 " fill-opacity="1" fill-rule="nonzero"/></g></g><path fill="#ffffff" d="M 60.964844 35.375 L 103.492188 74.167969 L 92.964844 108.0625 L 58.339844 117.542969 L 15.441406 77.707031 L 0.476562 90.871094 L 45.375 148.683594 L 105.136719 136.679688 L 302.753906 329.09375 C 326.46875 353.160156 366.625 321.351562 337.976562 295.460938 L 126.449219 112.503906 L 138.652344 62.722656 L 75.542969 22.042969 L 60.964844 35.382812 Z M 313.816406 305.890625 C 319.097656 301.046875 328.457031 300.089844 333.738281 305.019531 C 339.113281 309.863281 343.414062 318.445312 335.792969 327.753906 C 329.46875 333.550781 319.351562 333.320312 313.027344 327.054688 C 307.714844 322.183594 308.445312 310.820312 313.820312 305.890625 Z M 313.816406 305.890625 " fill-opacity="1" fill-rule="nonzero"/><path fill="#ffffff" d="M 60.542969 35.4375 L 134.753906 104.011719 L 144.933594 63.796875 L 75.058594 22.042969 Z M 60.542969 35.4375 " fill-opacity="1" fill-rule="nonzero"/><path fill="#ffffff" d="M 207.703125 180.695312 L 222.34375 193.105469 C 223.546875 205.632812 220.035156 209.398438 197.589844 226.855469 L 170.394531 200.121094 L 207.675781 180.695312 Z M 207.703125 180.695312 " fill-opacity="1" fill-rule="nonzero"/><path fill="#ffffff" d="M 160.46875 25.519531 L 162.871094 25.980469 C 190.820312 17.457031 253.554688 51.03125 239.578125 80.953125 C 236.039062 85.652344 236.636719 94 240.90625 99.25 L 162.460938 171.210938 C 158.066406 167.183594 148.292969 167.269531 143.804688 171.210938 L 14.070312 285.390625 C 2.246094 295.796875 11.542969 304.640625 16.539062 309.308594 L 39.808594 330.648438 C 44.898438 335.289062 58.339844 341.550781 67.886719 332.273438 L 190.316406 213.949219 C 194.585938 209.832031 194.617188 200.988281 190.316406 196.929688 C 190.316406 196.929688 190.347656 196.871094 190.316406 196.871094 L 269.078125 124.675781 C 277.394531 131.546875 285.25 132.140625 292.699219 130.273438 C 307.085938 126.660156 315.109375 139.570312 323.714844 149.003906 L 319.828125 152.511719 C 314.074219 157.847656 314.609375 166.832031 321.0625 172.75 C 327.511719 178.664062 337.34375 179.15625 343.097656 173.878906 L 368.835938 150.308594 C 374.589844 144.972656 374.054688 135.984375 367.574219 130.097656 C 361.753906 124.734375 353.3125 124.039062 347.429688 127.867188 C 329.789062 109.714844 339.050781 106.992188 315.78125 83.359375 L 272.179688 42.507812 C 240.78125 14.269531 199.992188 14.296875 160.46875 25.519531 Z M 160.46875 25.519531 " fill-opacity="1" fill-rule="nonzero"/><path fill="#ffffff" d="M 160.46875 25.519531 L 162.871094 25.980469 C 190.820312 17.457031 253.554688 51.03125 239.578125 80.953125 C 236.039062 85.652344 236.636719 94 240.90625 99.25 L 162.460938 171.210938 C 158.066406 167.183594 148.292969 167.269531 143.804688 171.210938 L 14.070312 285.390625 C 2.246094 295.796875 11.542969 304.640625 16.539062 309.308594 L 39.808594 330.648438 C 44.898438 335.289062 58.339844 341.550781 67.886719 332.273438 L 190.316406 213.949219 C 194.585938 209.832031 194.617188 200.988281 190.316406 196.929688 C 190.316406 196.929688 190.347656 196.871094 190.316406 196.871094 L 269.078125 124.675781 C 277.394531 131.546875 285.25 132.140625 292.699219 130.273438 C 307.085938 126.660156 315.109375 139.570312 323.714844 149.003906 L 319.828125 152.511719 C 314.074219 157.847656 314.609375 166.832031 321.0625 172.75 C 327.511719 178.664062 337.34375 179.15625 343.097656 173.878906 L 368.835938 150.308594 C 374.589844 144.972656 374.054688 135.984375 367.574219 130.097656 C 361.753906 124.734375 353.3125 124.039062 347.429688 127.867188 C 329.789062 109.714844 339.050781 106.992188 315.78125 83.359375 L 272.179688 42.507812 C 240.78125 14.269531 199.992188 14.296875 160.46875 25.519531 Z M 160.46875 25.519531 " fill-opacity="1" fill-rule="nonzero"/><path fill="#ffffff" d="M 246.21875 94.375 L 153.101562 179.761719 L 181.019531 205.363281 L 274.136719 120.003906 Z M 246.21875 94.375 " fill-opacity="1" fill-rule="nonzero"/><path fill="#ffffff" d="M 265.21875 111.808594 L 172.105469 197.167969 L 181.019531 205.371094 L 274.136719 120.011719 Z M 265.21875 111.808594 " fill-opacity="1" fill-rule="nonzero"/><path fill="#ffffff" d="M 257.410156 98.113281 L 164.671875 183.152344 L 176.65625 194.144531 L 267.023438 106.925781 Z M 257.410156 98.113281 " fill-opacity="1" fill-rule="nonzero"/><path fill="#ffffff" d="M 160.46875 25.523438 L 162.875 25.988281 C 190.824219 17.460938 253.554688 51.039062 239.582031 80.960938 C 236.039062 85.65625 236.640625 94.007812 240.90625 99.257812 L 269.078125 124.683594 C 277.394531 131.554688 285.238281 132.136719 292.699219 130.28125 C 307.085938 126.714844 315.085938 139.558594 323.714844 149.011719 L 319.828125 152.519531 C 314.074219 157.855469 314.609375 166.84375 321.058594 172.757812 C 327.511719 178.671875 337.34375 179.164062 343.097656 173.886719 L 368.835938 150.316406 C 374.589844 144.980469 374.054688 135.992188 367.570312 130.105469 C 361.753906 124.742188 353.3125 124.046875 347.429688 127.875 C 329.785156 109.722656 339.050781 107 315.78125 83.367188 L 272.179688 42.515625 C 240.78125 14.273438 199.992188 14.304688 160.46875 25.523438 Z M 160.46875 25.523438 " fill-opacity="1" fill-rule="nonzero"/><path fill="#ffffff" d="M 347.421875 127.859375 C 329.777344 109.710938 339.042969 106.984375 315.769531 83.355469 L 272.167969 42.5 C 254.175781 26.324219 233.085938 19.421875 210.953125 18.550781 L 341 138.964844 L 350.40625 131.050781 L 347.417969 127.863281 Z M 347.421875 127.859375 " fill-opacity="1" fill-rule="nonzero"/><path fill="#ffffff" d="M 241.574219 71.914062 C 241.730469 74.8125 241.003906 77.710938 239.515625 80.960938 C 236.039062 85.65625 236.640625 94.007812 240.910156 99.253906 L 269.082031 124.683594 C 277.394531 131.554688 285.238281 132.132812 292.699219 130.277344 C 296.113281 129.320312 299.210938 129.496094 302.121094 130.277344 C 310.972656 132.511719 241.539062 70.695312 241.570312 71.625 L 241.570312 71.914062 Z M 241.574219 71.914062 " fill-opacity="1" fill-rule="nonzero"/><path fill="#ffffff" d="M 162.460938 171.214844 C 158.066406 167.183594 148.296875 167.269531 143.804688 171.214844 L 14.082031 285.394531 C 2.253906 295.800781 11.488281 304.644531 16.546875 309.316406 L 39.816406 330.652344 C 44.910156 335.292969 58.347656 341.554688 67.894531 332.277344 L 190.324219 213.953125 C 194.589844 209.835938 194.621094 200.988281 190.324219 196.933594 C 190.324219 196.933594 190.355469 196.875 190.324219 196.875 L 162.46875 171.214844 Z M 162.460938 171.214844 " fill-opacity="1" fill-rule="nonzero"/><path fill="#ffffff" d="M 16.503906 309.285156 L 39.777344 330.652344 C 44.867188 335.292969 57.894531 341.933594 67.441406 332.710938 L 190.34375 213.921875 C 194.613281 209.777344 194.738281 200.875 190.34375 196.875 L 162.425781 171.242188 L 16.503906 309.289062 Z M 16.503906 309.285156 " fill-opacity="1" fill-rule="nonzero"/><path fill="#ffffff" d="M 145.921875 181.21875 L 22.988281 291.511719 C 17.867188 296.035156 19.605469 302.386719 23.304688 305.691406 L 36.363281 317.203125 L 170.324219 190.789062 L 157.929688 180.117188 C 155.273438 177.796875 149.078125 178.464844 145.914062 181.21875 Z M 145.921875 181.21875 " fill-opacity="1" fill-rule="nonzero"/><g clip-path="url(#b741c79d33)"><g clip-path="url(#2f6f954600)"><path fill="#ffffff" d="M 160.46875 25.519531 L 162.871094 25.980469 C 190.820312 17.457031 253.554688 51.03125 239.578125 80.953125 C 236.039062 85.652344 236.636719 94 240.90625 99.25 L 162.460938 171.210938 C 158.066406 167.183594 148.292969 167.269531 143.804688 171.210938 L 14.070312 285.390625 C 2.246094 295.796875 11.542969 304.640625 16.539062 309.308594 L 39.808594 330.648438 C 44.898438 335.289062 58.339844 341.550781 67.886719 332.273438 L 190.316406 213.949219 C 194.585938 209.832031 194.617188 200.988281 190.316406 196.929688 C 190.316406 196.929688 190.347656 196.871094 190.316406 196.871094 L 269.078125 124.675781 C 277.394531 131.546875 285.25 132.140625 292.699219 130.273438 C 307.085938 126.660156 315.109375 139.570312 323.714844 149.003906 L 319.828125 152.511719 C 314.074219 157.847656 314.609375 166.832031 321.0625 172.75 C 327.511719 178.664062 337.34375 179.15625 343.097656 173.878906 L 368.835938 150.308594 C 374.589844 144.972656 374.054688 135.984375 367.574219 130.097656 C 361.753906 124.734375 353.3125 124.039062 347.429688 127.867188 C 329.789062 109.714844 339.050781 106.992188 315.78125 83.359375 L 272.179688 42.507812 C 240.78125 14.269531 199.992188 14.296875 160.46875 25.519531 Z M 160.46875 25.519531 " fill-opacity="1" fill-rule="nonzero"/></g></g><path fill="#ffffff" d="M 364.878906 133.554688 C 369.652344 137.726562 370.570312 143.527344 363.992188 149.09375 L 351.757812 159.621094 C 345.179688 165.273438 327.980469 150.195312 334.523438 144.570312 L 346.792969 134.046875 C 353.335938 128.394531 360.101562 129.378906 364.878906 133.554688 Z M 364.878906 133.554688 " fill-opacity="1" fill-rule="nonzero"/></svg>