<svg xmlns="http://www.w3.org/2000/svg" xmlns:xlink="http://www.w3.org/1999/xlink" width="500" zoomAndPan="magnify" viewBox="0 0 375 374.999991" height="500" preserveAspectRatio="xMidYMid meet" version="1.0"><path fill="#ffffff" d="M 317.730469 123.46875 C 317.550781 123.140625 317.339844 122.832031 317.097656 122.546875 C 316.855469 122.261719 316.589844 122 316.296875 121.765625 C 316.003906 121.53125 315.695312 121.328125 315.363281 121.152344 C 315.03125 120.980469 314.683594 120.839844 314.324219 120.734375 C 313.964844 120.628906 313.601562 120.554688 313.226562 120.519531 C 312.855469 120.484375 312.484375 120.488281 312.109375 120.523438 C 311.738281 120.5625 311.371094 120.632812 311.011719 120.742188 C 310.65625 120.851562 310.308594 120.992188 309.980469 121.167969 C 309.648438 121.34375 309.339844 121.550781 309.046875 121.785156 C 308.757812 122.023438 308.492188 122.285156 308.25 122.570312 C 308.011719 122.859375 307.800781 123.167969 307.621094 123.496094 C 307.441406 123.824219 307.296875 124.167969 307.183594 124.523438 C 307.070312 124.882812 306.992188 125.246094 306.949219 125.617188 C 306.910156 125.988281 306.902344 126.363281 306.933594 126.734375 C 306.964844 127.109375 307.03125 127.476562 307.132812 127.835938 C 307.234375 128.195312 307.371094 128.542969 307.539062 128.878906 C 360.605469 226.425781 286.046875 350.160156 174.804688 348.75 C 172.351562 348.746094 169.898438 348.683594 167.449219 348.558594 C 164.996094 348.4375 162.550781 348.253906 160.109375 348.011719 C 157.667969 347.769531 155.230469 347.464844 152.804688 347.101562 C 150.378906 346.742188 147.960938 346.320312 145.554688 345.839844 C 143.148438 345.359375 140.753906 344.816406 138.375 344.21875 C 135.996094 343.621094 133.628906 342.964844 131.28125 342.25 C 128.933594 341.539062 126.605469 340.765625 124.296875 339.9375 C 121.984375 339.109375 119.695312 338.226562 117.429688 337.285156 C 115.164062 336.34375 112.921875 335.351562 110.703125 334.300781 C 108.484375 333.25 106.292969 332.144531 104.128906 330.988281 C 101.964844 329.828125 99.832031 328.621094 97.726562 327.355469 C 95.625 326.09375 93.550781 324.78125 91.511719 323.417969 C 89.472656 322.054688 87.464844 320.640625 85.496094 319.179688 C 83.523438 317.714844 81.589844 316.207031 79.695312 314.648438 C 77.796875 313.089844 75.9375 311.488281 74.121094 309.839844 C 72.300781 308.191406 70.527344 306.5 68.789062 304.765625 C 67.054688 303.03125 65.363281 301.253906 63.714844 299.433594 C 62.066406 297.617188 60.464844 295.757812 58.90625 293.863281 C 57.351562 291.964844 55.839844 290.03125 54.378906 288.0625 C 52.914062 286.089844 51.503906 284.085938 50.140625 282.042969 C 48.773438 280.003906 47.460938 277.933594 46.199219 275.828125 C 44.9375 273.722656 43.726562 271.589844 42.570312 269.425781 C 41.410156 267.261719 40.308594 265.070312 39.257812 262.851562 C 38.207031 260.632812 37.210938 258.390625 36.269531 256.125 C 35.332031 253.859375 34.445312 251.570312 33.617188 249.261719 C 32.789062 246.949219 32.019531 244.621094 31.304688 242.273438 C 30.589844 239.925781 29.933594 237.5625 29.335938 235.179688 C 28.738281 232.800781 28.199219 230.40625 27.71875 228 C 27.238281 225.59375 26.816406 223.179688 26.453125 220.75 C 26.089844 218.324219 25.789062 215.890625 25.546875 213.445312 C 25.300781 211.003906 25.121094 208.558594 24.996094 206.109375 C 24.875 203.65625 24.808594 201.203125 24.808594 198.75 C 23.417969 87.507812 147.117188 12.949219 244.683594 66.019531 C 245.015625 66.199219 245.367188 66.339844 245.726562 66.449219 C 246.089844 66.558594 246.460938 66.632812 246.839844 66.667969 C 247.214844 66.703125 247.59375 66.703125 247.96875 66.664062 C 248.347656 66.625 248.714844 66.550781 249.078125 66.4375 C 249.441406 66.328125 249.789062 66.183594 250.121094 66.003906 C 250.453125 65.824219 250.769531 65.613281 251.058594 65.371094 C 251.351562 65.128906 251.617188 64.863281 251.855469 64.570312 C 252.097656 64.277344 252.304688 63.960938 252.484375 63.625 C 252.660156 63.292969 252.804688 62.945312 252.914062 62.582031 C 253.019531 62.21875 253.09375 61.847656 253.128906 61.46875 C 253.164062 61.09375 253.164062 60.714844 253.125 60.339844 C 253.085938 59.960938 253.011719 59.59375 252.902344 59.230469 C 252.789062 58.867188 252.644531 58.519531 252.464844 58.1875 C 252.285156 57.855469 252.074219 57.539062 251.835938 57.25 C 251.59375 56.957031 251.324219 56.691406 251.03125 56.453125 C 250.738281 56.210938 250.425781 56.003906 250.089844 55.824219 C 247.390625 54.402344 244.652344 53.058594 241.875 51.792969 C 239.097656 50.523438 236.289062 49.335938 233.445312 48.230469 C 230.601562 47.121094 227.726562 46.09375 224.824219 45.152344 C 221.925781 44.207031 218.996094 43.34375 216.046875 42.5625 C 213.097656 41.785156 210.125 41.089844 207.136719 40.480469 C 204.144531 39.867188 201.140625 39.34375 198.121094 38.902344 C 195.101562 38.460938 192.070312 38.109375 189.03125 37.839844 C 185.992188 37.570312 182.945312 37.386719 179.894531 37.292969 C 176.84375 37.195312 173.792969 37.1875 170.742188 37.261719 C 167.691406 37.339844 164.644531 37.503906 161.605469 37.753906 C 158.5625 38 155.53125 38.335938 152.507812 38.757812 C 149.484375 39.179688 146.476562 39.6875 143.484375 40.277344 C 140.488281 40.871094 137.515625 41.546875 134.558594 42.304688 C 131.601562 43.066406 128.671875 43.910156 125.761719 44.835938 C 122.855469 45.761719 119.976562 46.769531 117.125 47.859375 C 114.273438 48.949219 111.457031 50.121094 108.671875 51.371094 C 105.890625 52.621094 103.140625 53.945312 100.433594 55.351562 C 97.722656 56.757812 95.054688 58.238281 92.429688 59.792969 C 89.804688 61.351562 87.226562 62.980469 84.695312 64.683594 C 82.160156 66.382812 79.679688 68.15625 77.246094 70 C 74.8125 71.84375 72.433594 73.753906 70.113281 75.730469 C 67.789062 77.710938 65.519531 79.753906 63.3125 81.859375 C 61.105469 83.964844 58.957031 86.132812 56.871094 88.359375 C 54.785156 90.589844 52.765625 92.875 50.808594 95.214844 C 48.851562 97.558594 46.964844 99.957031 45.144531 102.40625 C 43.324219 104.855469 41.574219 107.355469 39.898438 109.902344 C 38.21875 112.453125 36.613281 115.046875 35.082031 117.683594 C 33.550781 120.324219 32.09375 123.007812 30.714844 125.726562 C 29.335938 128.449219 28.035156 131.210938 26.8125 134.007812 C 25.589844 136.800781 24.445312 139.628906 23.382812 142.492188 C 22.320312 145.351562 21.339844 148.242188 20.4375 151.15625 C 19.539062 154.074219 18.722656 157.011719 17.992188 159.976562 C 17.257812 162.9375 16.609375 165.917969 16.046875 168.917969 C 15.484375 171.917969 15.003906 174.929688 14.613281 177.957031 C 14.21875 180.984375 13.914062 184.019531 13.691406 187.0625 C 13.472656 190.105469 13.335938 193.15625 13.289062 196.207031 C 13.242188 199.257812 13.277344 202.308594 13.402344 205.355469 C 13.527344 208.40625 13.738281 211.449219 14.035156 214.488281 C 14.335938 217.523438 14.71875 220.550781 15.1875 223.566406 C 15.65625 226.582031 16.210938 229.582031 16.847656 232.566406 C 17.488281 235.550781 18.210938 238.515625 19.015625 241.457031 C 19.824219 244.402344 20.714844 247.320312 21.683594 250.210938 C 22.65625 253.105469 23.710938 255.96875 24.84375 258.800781 C 25.980469 261.632812 27.195312 264.433594 28.488281 267.195312 C 29.78125 269.960938 31.148438 272.6875 32.597656 275.375 C 34.046875 278.058594 35.566406 280.703125 37.164062 283.304688 C 38.761719 285.90625 40.433594 288.457031 42.175781 290.964844 C 43.917969 293.46875 45.730469 295.921875 47.609375 298.328125 C 49.492188 300.730469 51.4375 303.078125 53.453125 305.371094 C 55.46875 307.664062 57.546875 309.898438 59.6875 312.070312 C 61.828125 314.246094 64.027344 316.359375 66.289062 318.410156 C 68.550781 320.460938 70.867188 322.445312 73.238281 324.363281 C 75.613281 326.28125 78.039062 328.132812 80.515625 329.914062 C 82.996094 331.695312 85.519531 333.40625 88.097656 335.042969 C 90.671875 336.679688 93.289062 338.246094 95.953125 339.734375 C 98.617188 341.226562 101.320312 342.636719 104.0625 343.972656 C 106.808594 345.3125 109.585938 346.570312 112.402344 347.746094 C 115.21875 348.925781 118.0625 350.023438 120.941406 351.042969 C 123.816406 352.058594 126.722656 352.996094 129.652344 353.847656 C 132.582031 354.703125 135.535156 355.472656 138.507812 356.15625 C 141.480469 356.84375 144.472656 357.445312 147.480469 357.960938 C 150.488281 358.476562 153.507812 358.90625 156.539062 359.253906 C 159.574219 359.597656 162.613281 359.855469 165.660156 360.027344 C 168.707031 360.203125 171.753906 360.289062 174.808594 360.289062 C 294.625 361.78125 374.914062 228.550781 317.730469 123.46875 Z M 317.730469 123.46875 " fill-opacity="1" fill-rule="nonzero"/><path fill="#ffffff" d="M 174.808594 152.597656 C 179.839844 152.59375 184.730469 153.410156 189.488281 155.050781 C 189.84375 155.171875 190.210938 155.261719 190.585938 155.3125 C 190.960938 155.363281 191.339844 155.375 191.71875 155.351562 C 192.09375 155.332031 192.46875 155.269531 192.832031 155.175781 C 193.199219 155.078125 193.554688 154.945312 193.894531 154.78125 C 194.234375 154.613281 194.554688 154.417969 194.855469 154.1875 C 195.15625 153.957031 195.433594 153.703125 195.683594 153.417969 C 195.9375 153.136719 196.15625 152.828125 196.347656 152.503906 C 196.539062 152.175781 196.695312 151.832031 196.820312 151.476562 C 199.355469 141.269531 181.386719 141.675781 174.808594 141.058594 C 98.28125 144.21875 98.285156 253.28125 174.808594 256.441406 C 176.695312 256.441406 178.582031 256.34375 180.460938 256.160156 C 182.339844 255.972656 184.207031 255.691406 186.058594 255.324219 C 187.910156 254.953125 189.742188 254.492188 191.546875 253.945312 C 193.355469 253.394531 195.132812 252.757812 196.875 252.035156 C 198.621094 251.308594 200.324219 250.503906 201.992188 249.609375 C 203.65625 248.71875 205.273438 247.75 206.84375 246.699219 C 208.414062 245.648438 209.929688 244.527344 211.390625 243.328125 C 212.851562 242.128906 214.246094 240.863281 215.582031 239.527344 C 216.917969 238.191406 218.1875 236.792969 219.386719 235.332031 C 220.582031 233.871094 221.707031 232.355469 222.757812 230.785156 C 223.808594 229.214844 224.777344 227.597656 225.667969 225.933594 C 226.558594 224.269531 227.367188 222.5625 228.089844 220.816406 C 228.816406 219.074219 229.453125 217.296875 230 215.488281 C 230.550781 213.683594 231.011719 211.851562 231.378906 210 C 231.75 208.148438 232.03125 206.28125 232.214844 204.402344 C 232.402344 202.523438 232.496094 200.640625 232.5 198.75 C 231.910156 192.054688 232.300781 174.273438 222.140625 176.796875 C 221.78125 176.917969 221.4375 177.078125 221.113281 177.265625 C 220.785156 177.457031 220.476562 177.679688 220.195312 177.929688 C 219.910156 178.179688 219.65625 178.457031 219.425781 178.757812 C 219.195312 179.058594 219 179.382812 218.832031 179.722656 C 218.664062 180.0625 218.535156 180.417969 218.4375 180.78125 C 218.34375 181.148438 218.28125 181.519531 218.257812 181.898438 C 218.238281 182.277344 218.25 182.652344 218.300781 183.03125 C 218.351562 183.40625 218.441406 183.773438 218.5625 184.128906 C 220.179688 188.867188 220.980469 193.742188 220.960938 198.75 C 218.648438 259.882812 130.96875 259.886719 128.652344 198.75 C 128.65625 197.238281 128.730469 195.730469 128.882812 194.226562 C 129.03125 192.722656 129.253906 191.230469 129.550781 189.75 C 129.84375 188.265625 130.214844 186.804688 130.652344 185.359375 C 131.09375 183.910156 131.601562 182.492188 132.179688 181.09375 C 132.761719 179.699219 133.40625 178.335938 134.121094 177.003906 C 134.832031 175.671875 135.609375 174.375 136.449219 173.121094 C 137.289062 171.863281 138.1875 170.652344 139.148438 169.484375 C 140.105469 168.316406 141.117188 167.199219 142.1875 166.128906 C 143.257812 165.0625 144.375 164.046875 145.542969 163.089844 C 146.710938 162.128906 147.921875 161.230469 149.179688 160.390625 C 150.433594 159.550781 151.730469 158.773438 153.0625 158.0625 C 154.394531 157.347656 155.757812 156.703125 157.152344 156.125 C 158.550781 155.542969 159.96875 155.035156 161.414062 154.59375 C 162.863281 154.15625 164.324219 153.789062 165.808594 153.492188 C 167.289062 153.195312 168.78125 152.972656 170.285156 152.824219 C 171.789062 152.671875 173.296875 152.597656 174.808594 152.597656 Z M 174.808594 152.597656 " fill-opacity="1" fill-rule="nonzero"/><path fill="#ffffff" d="M 230.046875 110.683594 C 230.230469 110.351562 230.378906 110.003906 230.496094 109.644531 C 230.609375 109.28125 230.691406 108.914062 230.734375 108.539062 C 230.777344 108.160156 230.78125 107.785156 230.75 107.40625 C 230.71875 107.03125 230.652344 106.660156 230.546875 106.292969 C 230.441406 105.929688 230.304688 105.582031 230.128906 105.242188 C 229.957031 104.90625 229.753906 104.589844 229.515625 104.292969 C 229.28125 103.996094 229.019531 103.726562 228.730469 103.480469 C 228.441406 103.238281 228.128906 103.023438 227.796875 102.839844 C 219.6875 98.351562 211.148438 94.945312 202.171875 92.625 C 193.199219 90.304688 184.078125 89.140625 174.808594 89.132812 C 29.410156 95.144531 29.410156 302.359375 174.808594 308.367188 C 177.179688 308.367188 179.546875 308.292969 181.914062 308.140625 C 184.28125 307.988281 186.636719 307.757812 188.988281 307.453125 C 191.339844 307.144531 193.679688 306.765625 196.007812 306.308594 C 198.332031 305.851562 200.640625 305.316406 202.933594 304.710938 C 205.226562 304.101562 207.496094 303.421875 209.742188 302.667969 C 211.992188 301.914062 214.210938 301.085938 216.40625 300.1875 C 218.597656 299.289062 220.761719 298.320312 222.894531 297.28125 C 225.023438 296.242188 227.117188 295.132812 229.179688 293.957031 C 231.238281 292.78125 233.253906 291.542969 235.234375 290.234375 C 237.214844 288.929688 239.148438 287.558594 241.035156 286.128906 C 242.925781 284.695312 244.769531 283.203125 246.558594 281.652344 C 248.351562 280.101562 250.09375 278.492188 251.78125 276.828125 C 253.472656 275.164062 255.101562 273.445312 256.679688 271.675781 C 258.257812 269.90625 259.773438 268.085938 261.234375 266.21875 C 262.691406 264.347656 264.089844 262.433594 265.421875 260.472656 C 266.757812 258.515625 268.027344 256.511719 269.230469 254.472656 C 270.4375 252.429688 271.574219 250.347656 272.644531 248.234375 C 273.710938 246.117188 274.710938 243.96875 275.644531 241.789062 C 276.574219 239.605469 277.429688 237.398438 278.21875 235.160156 C 279.003906 232.925781 279.71875 230.664062 280.359375 228.382812 C 280.996094 226.097656 281.5625 223.796875 282.054688 221.476562 C 282.542969 219.160156 282.957031 216.824219 283.296875 214.480469 C 283.636719 212.132812 283.898438 209.777344 284.085938 207.414062 C 284.269531 205.050781 284.378906 202.683594 284.414062 200.3125 C 284.445312 197.941406 284.402344 195.570312 284.28125 193.203125 C 284.15625 190.835938 283.960938 188.476562 283.683594 186.121094 C 283.410156 183.765625 283.058594 181.421875 282.632812 179.089844 C 282.207031 176.757812 281.703125 174.441406 281.125 172.140625 C 280.550781 169.84375 279.898438 167.5625 279.171875 165.304688 C 278.449219 163.050781 277.648438 160.816406 276.78125 158.613281 C 275.910156 156.40625 274.96875 154.230469 273.957031 152.085938 C 272.945312 149.941406 271.867188 147.832031 270.71875 145.757812 C 270.535156 145.425781 270.320312 145.113281 270.078125 144.824219 C 269.832031 144.535156 269.5625 144.269531 269.265625 144.03125 C 268.96875 143.792969 268.652344 143.589844 268.316406 143.414062 C 267.976562 143.238281 267.628906 143.101562 267.261719 142.996094 C 266.898438 142.890625 266.527344 142.820312 266.148438 142.789062 C 265.769531 142.757812 265.390625 142.761719 265.015625 142.804688 C 264.636719 142.847656 264.265625 142.925781 263.90625 143.042969 C 263.542969 143.15625 263.195312 143.308594 262.863281 143.492188 C 262.53125 143.675781 262.222656 143.890625 261.933594 144.136719 C 261.644531 144.382812 261.378906 144.652344 261.144531 144.949219 C 260.90625 145.246094 260.703125 145.566406 260.53125 145.902344 C 260.355469 146.242188 260.21875 146.59375 260.113281 146.957031 C 260.011719 147.324219 259.941406 147.695312 259.914062 148.074219 C 259.882812 148.453125 259.886719 148.828125 259.933594 149.207031 C 259.976562 149.585938 260.058594 149.953125 260.175781 150.316406 C 260.292969 150.675781 260.441406 151.023438 260.628906 151.355469 C 297.195312 214.773438 248.070312 298.097656 174.804688 296.824219 C 173.203125 296.824219 171.597656 296.78125 169.996094 296.703125 C 168.394531 296.621094 166.792969 296.503906 165.195312 296.34375 C 163.601562 296.183594 162.007812 295.988281 160.421875 295.75 C 158.832031 295.511719 157.253906 295.238281 155.679688 294.921875 C 154.105469 294.609375 152.542969 294.257812 150.984375 293.863281 C 149.429688 293.472656 147.882812 293.046875 146.347656 292.578125 C 144.8125 292.113281 143.289062 291.605469 141.78125 291.066406 C 140.269531 290.523438 138.773438 289.945312 137.292969 289.332031 C 135.808594 288.714844 134.34375 288.066406 132.894531 287.378906 C 131.441406 286.691406 130.011719 285.96875 128.59375 285.214844 C 127.179688 284.457031 125.785156 283.664062 124.410156 282.839844 C 123.03125 282.015625 121.679688 281.15625 120.34375 280.261719 C 119.011719 279.371094 117.699219 278.449219 116.410156 277.492188 C 115.121094 276.535156 113.855469 275.546875 112.617188 274.53125 C 111.375 273.511719 110.164062 272.464844 108.972656 271.386719 C 107.785156 270.308594 106.621094 269.203125 105.488281 268.066406 C 104.355469 266.933594 103.246094 265.773438 102.167969 264.582031 C 101.09375 263.394531 100.042969 262.179688 99.027344 260.9375 C 98.007812 259.699219 97.019531 258.433594 96.066406 257.144531 C 95.109375 255.855469 94.183594 254.546875 93.292969 253.210938 C 92.402344 251.878906 91.542969 250.523438 90.71875 249.148438 C 89.890625 247.769531 89.101562 246.375 88.34375 244.960938 C 87.585938 243.546875 86.863281 242.113281 86.179688 240.664062 C 85.492188 239.214844 84.839844 237.746094 84.226562 236.265625 C 83.609375 234.78125 83.03125 233.285156 82.492188 231.777344 C 81.949219 230.265625 81.445312 228.742188 80.976562 227.207031 C 80.511719 225.671875 80.082031 224.125 79.691406 222.570312 C 79.300781 221.015625 78.949219 219.449219 78.632812 217.875 C 78.320312 216.300781 78.042969 214.722656 77.804688 213.136719 C 77.570312 211.546875 77.371094 209.957031 77.210938 208.359375 C 77.054688 206.761719 76.933594 205.164062 76.855469 203.5625 C 76.773438 201.957031 76.734375 200.355469 76.730469 198.75 C 75.472656 125.488281 158.773438 76.355469 222.203125 112.929688 C 222.535156 113.117188 222.882812 113.265625 223.242188 113.382812 C 223.601562 113.496094 223.972656 113.578125 224.347656 113.621094 C 224.726562 113.664062 225.101562 113.671875 225.480469 113.640625 C 225.859375 113.609375 226.226562 113.539062 226.59375 113.433594 C 226.957031 113.332031 227.308594 113.191406 227.644531 113.019531 C 227.980469 112.84375 228.296875 112.640625 228.59375 112.402344 C 228.890625 112.167969 229.160156 111.902344 229.40625 111.613281 C 229.648438 111.324219 229.863281 111.015625 230.046875 110.683594 Z M 230.046875 110.683594 " fill-opacity="1" fill-rule="nonzero"/><path fill="#ffffff" d="M 325.730469 88.617188 L 283.730469 130.617188 C 283.191406 131.144531 282.574219 131.554688 281.875 131.84375 C 281.175781 132.136719 280.449219 132.28125 279.691406 132.289062 L 279.230469 132.289062 L 251.597656 130.152344 L 178.902344 202.847656 C 178.632812 203.105469 178.339844 203.335938 178.023438 203.539062 C 177.707031 203.738281 177.375 203.910156 177.027344 204.046875 C 176.675781 204.183594 176.320312 204.289062 175.949219 204.355469 C 175.582031 204.425781 175.210938 204.457031 174.835938 204.453125 C 174.460938 204.449219 174.089844 204.40625 173.722656 204.332031 C 173.355469 204.253906 172.996094 204.144531 172.652344 204 C 172.304688 203.851562 171.976562 203.675781 171.667969 203.464844 C 171.355469 203.257812 171.066406 203.019531 170.800781 202.753906 C 170.539062 202.488281 170.300781 202.203125 170.089844 201.890625 C 169.882812 201.578125 169.703125 201.25 169.558594 200.90625 C 169.414062 200.558594 169.300781 200.203125 169.226562 199.835938 C 169.148438 199.46875 169.109375 199.097656 169.105469 198.722656 C 169.101562 198.347656 169.132812 197.976562 169.203125 197.605469 C 169.269531 197.238281 169.371094 196.878906 169.511719 196.53125 C 169.648438 196.183594 169.816406 195.847656 170.019531 195.535156 C 170.222656 195.21875 170.453125 194.925781 170.710938 194.652344 L 243.402344 121.960938 L 241.269531 94.328125 C 241.214844 93.492188 241.332031 92.683594 241.625 91.898438 C 241.914062 91.113281 242.355469 90.421875 242.941406 89.828125 L 284.941406 47.828125 C 285.335938 47.441406 285.777344 47.121094 286.261719 46.863281 C 286.746094 46.601562 287.257812 46.414062 287.792969 46.300781 C 288.332031 46.1875 288.875 46.148438 289.425781 46.1875 C 289.972656 46.226562 290.503906 46.34375 291.019531 46.53125 C 291.539062 46.722656 292.015625 46.980469 292.460938 47.308594 C 292.902344 47.632812 293.292969 48.015625 293.625 48.449219 C 293.960938 48.886719 294.230469 49.359375 294.429688 49.871094 C 294.632812 50.382812 294.757812 50.914062 294.808594 51.460938 L 296.710938 76.847656 L 322.097656 78.75 C 322.644531 78.800781 323.171875 78.925781 323.683594 79.128906 C 324.199219 79.328125 324.671875 79.597656 325.109375 79.929688 C 325.542969 80.265625 325.925781 80.65625 326.25 81.097656 C 326.578125 81.539062 326.835938 82.019531 327.023438 82.535156 C 327.214844 83.050781 327.328125 83.585938 327.367188 84.132812 C 327.410156 84.683594 327.371094 85.226562 327.257812 85.761719 C 327.140625 86.300781 326.953125 86.8125 326.695312 87.296875 C 326.4375 87.78125 326.113281 88.222656 325.730469 88.617188 Z M 325.730469 88.617188 " fill-opacity="1" fill-rule="nonzero"/></svg>