<svg xmlns="http://www.w3.org/2000/svg" xmlns:xlink="http://www.w3.org/1999/xlink" width="500" zoomAndPan="magnify" viewBox="0 0 375 374.999991" height="500" preserveAspectRatio="xMidYMid meet" version="1.0"><defs><clipPath id="144cebd4a2"><path d="M 1 16 L 374 16 L 374 367.78125 L 1 367.78125 Z M 1 16 " clip-rule="nonzero"/></clipPath></defs><g clip-path="url(#144cebd4a2)"><path fill="#ffffff" d="M 235.136719 234.453125 C 241.4375 234.265625 246.601562 236.070312 251.449219 240.945312 L 362.648438 352.71875 C 364.117188 354.222656 364.359375 355.960938 364.078125 357.164062 C 363.8125 358.390625 363.589844 358.328125 363.496094 358.328125 L 12.664062 358.328125 C 12.035156 358.328125 11.984375 358.253906 11.71875 358.035156 C 11.480469 357.792969 11.144531 357.289062 10.945312 356.515625 C 10.5625 354.996094 11.238281 353.035156 11.453125 352.824219 L 71.375 295.753906 C 78.679688 288.78125 83.292969 284.652344 87.832031 282.386719 C 92.367188 280.09375 97.316406 279.222656 106.433594 279.222656 L 130.449219 279.222656 C 144.929688 279.222656 153.59375 276.398438 165.371094 269.589844 L 200.644531 249.226562 C 204.386719 249.054688 208.152344 247.773438 211.097656 245.074219 C 212.113281 244.128906 212.957031 242.945312 213.707031 241.695312 C 221.527344 237.179688 228.890625 234.644531 235.136719 234.453125 Z M 147.898438 172.335938 C 149.972656 172.3125 152.945312 172.988281 156.203125 174.703125 C 170.996094 182.449219 176.8125 187.324219 179.492188 192.5625 C 182.605469 198.570312 183.664062 210.59375 183.664062 232.355469 C 183.421875 237.542969 185.40625 242.15625 188.5625 245.074219 L 188.585938 245.074219 L 160.566406 261.238281 C 150.359375 267.128906 144.738281 269.203125 133.613281 269.519531 C 134.460938 267.777344 135.082031 265.871094 135.300781 263.773438 C 139.335938 233.417969 141.121094 210.175781 142.589844 180.425781 C 142.882812 174.5625 144.351562 173.257812 146.183594 172.625 C 146.644531 172.460938 147.222656 172.363281 147.898438 172.335938 Z M 193.074219 54.695312 C 192.976562 58.175781 192.253906 63.363281 191.605469 66.8125 C 188.660156 68.066406 185.617188 68.984375 183.0625 69.828125 C 185.378906 64.761719 186.972656 58.777344 188.125 52.289062 C 188.679688 49.121094 193.195312 50.109375 193.074219 54.695312 Z M 201.617188 47.675781 L 212.984375 48.03125 C 209.773438 53.585938 206.175781 57.664062 202.171875 60.777344 C 202.363281 58.867188 202.582031 56.890625 202.679688 55.296875 C 202.875 52.476562 202.484375 49.917969 201.617188 47.675781 Z M 230.523438 51.269531 C 222.078125 75.109375 207.652344 84.886719 189.746094 90.289062 C 181.46875 92.792969 173.605469 93.351562 164.074219 94.363281 C 161.585938 94.628906 159.703125 96.777344 159.773438 99.289062 L 161.292969 149.609375 C 161.367188 151.390625 162.40625 152.980469 164 153.777344 C 182.050781 162.488281 193.851562 170.816406 199.664062 182.15625 C 206.46875 195.335938 205.941406 210.367188 206.347656 232.621094 C 206.398438 234.914062 205.53125 236.621094 204.566406 237.925781 C 203.675781 239.183594 201.648438 239.644531 199.816406 239.644531 C 197.980469 239.644531 196.242188 238.992188 195.109375 237.925781 C 193.347656 235.832031 193.324219 234.527344 193.273438 232.621094 C 192.917969 210.441406 192.886719 197.503906 188.0625 188.144531 C 183.914062 180.105469 175.996094 174.222656 160.699219 166.183594 C 154.980469 163.195312 148.824219 161.496094 143.007812 163.550781 C 137.21875 165.601562 133.382812 171.828125 132.992188 179.9375 C 131.523438 209.589844 129.765625 232.449219 125.777344 262.59375 C 125.757812 262.660156 125.757812 262.707031 125.738281 262.757812 C 125.472656 265.441406 124.550781 266.648438 123.273438 267.535156 C 122.015625 268.40625 120.183594 268.816406 118.375 268.597656 C 116.589844 268.355469 114.929688 267.46875 113.933594 266.304688 C 112.464844 264.085938 112.539062 262.925781 112.800781 260.898438 C 122.117188 191.449219 123.222656 135.871094 117.285156 91.183594 C 116.753906 87.175781 119.726562 83.746094 123.753906 83.746094 C 145.160156 83.746094 170.277344 83.746094 185.972656 78.996094 C 200.761719 74.53125 215.214844 66.667969 224.507812 46.679688 C 226.980469 41.375 232.265625 46.320312 230.523438 51.269531 Z M 284.464844 29.863281 L 284.464844 40.480469 L 237.386719 39.199219 C 236.222656 37.777344 234.804688 36.601562 233.183594 35.804688 C 228.625 33.582031 222.691406 34.640625 218.679688 38.601562 L 182.847656 37.441406 C 178.960938 37.324219 179.585938 32.375 182.625 32.300781 Z M 289.191406 16.878906 C 287.121094 16.929688 285.316406 18.28125 284.683594 20.230469 L 182.9375 22.648438 C 175.285156 22.839844 169.375 28.96875 169.476562 35.054688 C 169.570312 40.410156 173.816406 45.449219 179.949219 46.730469 C 179.277344 48.03125 178.785156 49.457031 178.570312 51.03125 C 177.441406 59.6875 173.914062 67.414062 170.605469 72.214844 C 157.1875 73.882812 139.402344 74.144531 123.742188 74.144531 C 114.089844 74.144531 107.117188 84.25 107.742188 92.4375 C 112.375 153.898438 110.953125 210.777344 103.257812 259.503906 C 102.648438 263.191406 103.28125 266.714844 104.726562 269.636719 C 95.890625 269.761719 89.378906 270.820312 83.519531 273.761719 C 77.269531 276.898438 72.125 281.75 64.738281 288.777344 L 4.820312 345.847656 C 1.082031 349.421875 0.503906 354.371094 1.613281 358.808594 C 2.171875 361.050781 3.226562 363.269531 5.113281 365.035156 C 6.972656 366.820312 9.746094 367.976562 12.671875 367.976562 L 363.503906 367.976562 C 368.734375 367.976562 372.453125 363.683594 373.46875 359.339844 C 374.457031 354.972656 373.324219 349.8125 369.507812 345.945312 L 258.308594 234.140625 C 251.722656 227.527344 243.390625 224.558594 234.855469 224.847656 C 228.652344 225.039062 222.328125 226.832031 215.984375 229.699219 C 216.007812 209.023438 216.007812 192.832031 208.238281 177.746094 C 201.289062 164.234375 188.039062 155.261719 170.855469 146.667969 L 169.527344 103.230469 C 177.179688 102.453125 184.613281 101.898438 192.578125 99.484375 C 212.339844 93.503906 230.175781 80.929688 239.609375 54.527344 C 240.292969 52.617188 240.574219 50.765625 240.597656 48.972656 L 284.589844 50.136719 C 286.042969 55.828125 294.464844 54.476562 294.082031 48.640625 L 294.082031 21.75 C 294.113281 19.054688 291.898438 16.832031 289.191406 16.878906 Z M 289.191406 16.878906 " fill-opacity="1" fill-rule="nonzero"/></g><path fill="#ffffff" d="M 144.210938 21.75 C 153.9375 25.445312 158.617188 35.964844 154.898438 45.472656 C 151.160156 54.980469 140.351562 59.710938 130.625 56.019531 C 120.945312 52.328125 116.261719 41.78125 119.984375 32.320312 C 123.71875 22.789062 134.503906 18.0625 144.210938 21.75 Z M 147.613281 12.753906 C 133.105469 7.230469 116.648438 14.398438 110.976562 28.804688 L 111.027344 28.804688 C 105.378906 43.160156 112.664062 59.5 127.191406 65.023438 C 141.742188 70.527344 158.199219 63.386719 163.871094 48.972656 C 169.496094 34.589844 162.1875 18.28125 147.613281 12.753906 Z M 147.613281 12.753906 " fill-opacity="1" fill-rule="evenodd"/></svg>