<svg xmlns="http://www.w3.org/2000/svg" xmlns:xlink="http://www.w3.org/1999/xlink" width="1920" zoomAndPan="magnify" viewBox="0 0 1440 809.999993" height="1080" preserveAspectRatio="xMidYMid meet" version="1.0"><defs><clipPath id="2e1c8c8269"><path d="M 535.570312 0 L 1440 0 L 1440 810 L 535.570312 810 Z M 535.570312 0 " clip-rule="nonzero"/></clipPath><clipPath id="de9ef04601"><path d="M 1290.980469 847.929688 L 535.570312 847.929688 L 1025.125 0 L 1780.53125 0 Z M 1290.980469 847.929688 " clip-rule="nonzero"/></clipPath><clipPath id="9c7a0236f1"><path d="M 1042.304688 0 L 1440 0 L 1440 810 L 1042.304688 810 Z M 1042.304688 0 " clip-rule="nonzero"/></clipPath><clipPath id="4fb6087ced"><path d="M 1905.199219 883.765625 L 1042.304688 883.765625 L 1601.515625 -84.816406 L 2464.410156 -84.816406 Z M 1905.199219 883.765625 " clip-rule="nonzero"/></clipPath></defs><g clip-path="url(#2e1c8c8269)"><g clip-path="url(#de9ef04601)"><path fill="#1d1d1d" d="M 535.570312 0 L 1780.53125 0 L 1780.53125 847.265625 L 535.570312 847.265625 Z M 535.570312 0 " fill-opacity="1" fill-rule="nonzero"/><path fill="#171e2b" d="M 535.570312 0 L 1780.53125 0 L 1780.53125 847.265625 L 535.570312 847.265625 Z M 535.570312 0 " fill-opacity="1" fill-rule="nonzero"/></g></g><g clip-path="url(#9c7a0236f1)"><g clip-path="url(#4fb6087ced)"><path fill="#1d1d1d" d="M 1042.304688 -84.816406 L 2464.410156 -84.816406 L 2464.410156 883.007812 L 1042.304688 883.007812 Z M 1042.304688 -84.816406 " fill-opacity="1" fill-rule="nonzero"/><path fill="#d30f20" d="M 1042.304688 -84.816406 L 2464.410156 -84.816406 L 2464.410156 883.007812 L 1042.304688 883.007812 Z M 1042.304688 -84.816406 " fill-opacity="1" fill-rule="nonzero"/></g></g><path stroke-linecap="butt" transform="matrix(0.375, -0.649519, 0.649519, 0.375, 450.646136, 887.888183)" fill="none" stroke-linejoin="miter" d="M 0.00142323 2.49856 L 1405.332883 2.499682 " stroke="#d30f20" stroke-width="5" stroke-opacity="1" stroke-miterlimit="4"/></svg>